<?xml version="1.0" encoding="UTF-8" standalone="no"?>
<!-- Created with Inkscape (http://www.inkscape.org/) -->

<svg
   version="1.1"
   id="svg1"
   width="905.75562"
   height="1057.6772"
   viewBox="0 0 905.75562 1057.6772"
   xmlns="http://www.w3.org/2000/svg"
   xmlns:svg="http://www.w3.org/2000/svg">
  <defs
     id="defs1" />
  <g
     id="g1"
     transform="translate(-58.101073,-196.25525)">
    <path
       style="fill:#000000"
       d="m 606,1253.3595 c -9.88244,-3.1794 -18.90593,-9.0821 -23.44833,-15.3387 -8.92647,-12.295 -6.65159,-32.9735 4.89807,-44.5232 l 4.60534,-4.6053 -10.6522,-10.6522 c -10.84871,-10.8487 -23.43716,-25.134 -47.35666,-53.7401 -7.35829,-8.8 -15.21639,-18.0672 -17.46246,-20.5938 -2.24607,-2.5267 -8.35876,-9.4672 -13.58376,-15.4234 -5.225,-5.9563 -11.975,-13.5764 -15,-16.9335 -10.88136,-12.0762 -18.54119,-20.898 -20.79183,-23.9457 -2.84379,-3.8511 -2.54575,-7.6419 0.7285,-9.2657 2.75437,-1.366 5.21633,-0.4644 8.35274,3.0589 1.02971,1.1568 0.45456,-0.4813 -1.27813,-3.6401 -3.32396,-6.0597 -3.35492,-9.1955 -0.101,-10.2282 3.23965,-1.0282 4.85421,0.49 10.42029,9.7989 17.00817,28.4451 30.23101,45.8027 67.16943,88.1733 4.4,5.047 13.01754,15.2116 19.15009,22.5879 6.13255,7.3763 14.70949,17.0114 19.05985,21.4114 4.35037,4.4 8.7081,9.3622 9.68386,11.0271 1.76448,3.0107 1.80342,3.0218 7.19014,2.035 l 5.41606,-0.9922 0.11794,-4.535 c 0.0649,-2.4942 0.23748,-10.3849 0.38357,-17.5349 0.14609,-7.15 0.75116,-20.425 1.34459,-29.5 0.59344,-9.075 0.74487,-19.65 0.33653,-23.5 -1.02416,-9.6561 -0.41101,-16.5249 1.41266,-15.8251 1.67103,0.6413 1.95113,-2.7285 0.35913,-4.3205 -1.96476,-1.9647 -2.91888,-18.8432 -2.93665,-51.9494 -0.0165,-30.8049 0.10878,-33.2095 1.81097,-34.75001 2.50501,-2.26701 5.76277,-2.07627 7.52567,0.44061 1.01562,1.45 2.08393,1.9001 3.46772,1.4609 1.25555,-0.3985 4.73147,0.6234 9.33889,2.7456 7.28508,3.3555 11.95253,5.4049 27.34847,12.0084 7.70382,3.3043 14.27821,5.9287 55.99051,22.3508 10.45,4.1141 19.9,7.8941 21,8.3999 4.75366,2.1859 29.36732,10.9975 39.07426,13.9885 1.69084,0.521 4.08374,2.0218 5.31756,3.3351 l 2.2433,2.3879 5.62361,-3.3863 c 3.09299,-1.8625 5.98329,-3.3864 6.4229,-3.3864 0.4396,0 -0.80482,-2.8125 -2.76538,-6.25 -1.96057,-3.4375 -9.58517,-18.4 -16.94356,-33.25 -21.96109,-44.31976 -39.01672,-75.84548 -44.21508,-81.72738 -1.0149,-1.14835 -1.34496,-2.8469 -0.98465,-5.06723 0.41898,-2.58192 0.1091,-3.61021 -1.36549,-4.5311 -1.91661,-1.19695 -2.51128,-4.72414 -1.14216,-6.77459 1.21283,-1.81638 4.92101,-3.3997 7.96218,-3.3997 1.57244,0 6.66452,-1.07087 11.31574,-2.37971 8.51194,-2.39523 12.11935,-3.12339 30.45677,-6.14776 5.5,-0.90711 15.4,-2.76183 22,-4.1216 19.41855,-4.0007 44.08891,-7.77464 49.17187,-7.52204 2.95946,0.14707 3.28291,-0.17666 4.82986,-4.83411 2.76136,-8.31366 9.37501,-16.26522 17.18352,-20.65963 6.64012,-3.73687 7.071,-3.83515 16.81475,-3.83515 8.91893,0 10.61403,0.30153 15.6798,2.78921 12.05971,5.9222 20.08276,17.34151 21.45879,30.54252 1.42469,13.66788 -7.56166,28.5476 -21.61615,35.79232 -4.63102,2.38717 -6.94925,2.88071 -15,3.19349 -7.88751,0.30644 -10.492,0.005 -15.16953,-1.75714 -10.69757,-4.02946 -19.17347,-14.24594 -20.73413,-24.99201 -0.7092,-4.88323 -1.4331,-5.21739 -8.11878,-3.7477 -1.375,0.30226 -13.525,2.62557 -27,5.1629 -13.475,2.53734 -33.725,6.35564 -45,8.48511 -11.275,2.12948 -22.86811,4.24517 -25.76246,4.70154 l -5.26246,0.82976 4.80987,7.5 c 7.18673,11.2062 20.82147,36.09737 31.49701,57.5 14.869,29.8098 29.71804,60.5817 29.71804,61.5852 0,0.5031 1.4625,0.9833 3.25,1.0671 15.71786,0.7366 27.92344,9.0937 33.30142,22.8013 2.36199,6.0203 2.65233,7.9269 2.2433,14.7309 -0.80812,13.4425 -7.6087,22.5497 -21.79472,29.187 -4.90346,2.2942 -6.74731,2.5742 -17,2.5814 -10.46236,0.01 -12.03508,-0.2406 -17.43013,-2.7495 -8.50965,-3.9572 -13.68304,-8.5983 -17.09841,-15.3389 -2.47422,-4.8831 -2.96481,-7.0359 -2.9317,-12.8645 0.0408,-7.1789 1.91238,-13.5175 5.46421,-18.5056 l 1.86625,-2.6209 -9.18511,-3.243 c -31.43034,-11.0971 -135.89745,-53.439 -142.52773,-57.7683 l -2.34262,-1.5297 0.69805,16.3338 c 1.78751,41.8256 0.77358,136.7996 -1.57291,147.3337 -0.49006,2.2 -0.90201,4.2841 -0.91545,4.6313 -0.0135,0.3472 2.11305,1.1644 4.72555,1.8159 9.6842,2.4152 19.30421,10.4504 23.40923,19.5528 2.97269,6.5915 3.19398,19.4623 0.47282,27.5 -2.51059,7.4157 -10.79765,15.9223 -20.01641,20.5466 -6.47646,3.2488 -7.45407,3.4487 -16.5,3.3745 -5.2886,-0.043 -10.29064,-0.2962 -11.11564,-0.5616 z m 22.5,-13.7676 c 6.11817,-2.9228 9.85309,-6.4035 12.55583,-11.7013 4.54015,-8.8995 3.41878,-19.1372 -2.85964,-26.1075 -5.08208,-5.6421 -10.96476,-8.0815 -20.19619,-8.3748 -9.43417,-0.2997 -14.92891,1.8769 -21.19805,8.3968 -13.56969,14.1126 -8.76813,32.8502 9.89582,38.6174 1.93022,0.5964 2.3377,0.1595 3.34715,-3.5893 0.86733,-3.221 0.86637,-4.3628 -0.004,-4.6529 -1.9247,-0.6415 -5.04104,-4.4551 -5.04104,-6.1689 0,-2.419 2.06419,-4.0114 5.2,-4.0114 1.54,0 2.8,-0.5271 2.8,-1.1713 0,-1.9949 3.20136,-4.8287 5.45499,-4.8287 2.9256,0 4.54501,1.8528 4.54501,5.2 0,2.3093 0.43192,2.8 2.46482,2.8 2.28263,0 4.53518,2.4153 4.53518,4.8628 0,1.9673 -3.2009,4.1372 -6.10281,4.1372 -3.07776,0 -3.35688,0.3745 -4.28566,5.75 -0.49465,2.8629 -0.29655,3.2488 1.66347,3.2402 1.22375,-0.01 4.475,-1.0846 7.225,-2.3983 z M 812,1111.5818 c 0,-6.3514 -0.71519,-7.5818 -4.40699,-7.5818 -4.01626,0 -5.59301,-1.5505 -5.59301,-5.5 0,-3.5979 1.54344,-5.5 4.46287,-5.5 1.18013,0 2.48529,-0.9628 3.05,-2.25 1.34263,-3.0603 5.75262,-3.4845 8.42655,-0.8106 1.15409,1.1541 3.36486,2.0606 5.0254,2.0606 5.89187,0 6.3745,8.1238 0.56919,9.5808 -1.39371,0.3498 -2.53401,1.3225 -2.53401,2.1616 0,3.1106 2.35727,9.2576 3.55013,9.2576 2.38245,0 11.30853,-9.0417 12.50498,-12.667 1.56463,-4.7408 0.48563,-13.6416 -2.21195,-18.2466 -5.36008,-9.15 -15.95894,-13.9167 -26.99324,-12.1396 -6.45966,1.0403 -14.84992,5.4282 -14.84992,7.7662 0,0.8376 -1.31139,3.0166 -2.9142,4.8421 -3.93257,4.4789 -5.8576,12.9255 -4.20382,18.4453 2.38605,7.9639 12.32207,14.7433 21.86802,14.9207 L 812,1116 Z m 86.5,-182.41069 c 2.2,-0.82299 4.11256,-1.57323 4.25013,-1.6672 0.13758,-0.094 -1.44333,-2.00519 -3.51311,-4.24717 -3.42489,-3.70983 -3.9366,-3.94958 -5.69127,-2.66654 -3.10593,2.27112 -6.43135,1.75499 -7.78124,-1.2077 -1.06159,-2.32993 -0.91403,-2.85714 1.34307,-4.79861 l 2.53568,-2.1811 -1.97414,-2.64416 c -1.86855,-2.50271 -1.88452,-2.78094 -0.29858,-5.20139 1.91352,-2.92041 6.59956,-3.50312 8.61754,-1.0716 1.07911,1.30024 1.55078,1.23565 3.77966,-0.51759 2.23753,-1.76004 2.80074,-1.83543 4.63947,-0.62104 2.90912,1.92133 3.11818,5.10641 0.57005,8.68492 l -2.16139,3.03539 2.53296,1.99243 c 1.39312,1.09583 2.81488,2.88068 3.15945,3.96634 1.0426,3.28493 2.2418,2.28351 5.53925,-4.62568 2.69484,-5.64653 3.05131,-7.27115 2.46844,-11.25 -1.93562,-13.21302 -10.21696,-21.41609 -24.14117,-23.91297 -6.79778,-1.21897 -10.26217,0.0727 -16.34403,6.09384 -7.12322,7.05207 -8.55986,10.53729 -8.38505,20.3418 0.12262,6.87702 0.58608,8.98215 2.9226,13.27511 5.27277,9.68782 16.64821,13.44394 27.93168,9.22292 z M 324,1245.1386 c -9.34085,-2.0293 -21.29001,-10.5421 -25.31265,-18.0334 -9.44572,-17.5904 -1.37904,-41.2738 16.57345,-48.6588 3.72165,-1.5309 4.7325,-2.4419 4.73545,-4.2678 0.002,-1.2768 -0.63884,-2.964 -1.42422,-3.7494 -0.78538,-0.7854 -1.71746,-4.0158 -2.07129,-7.1786 -0.35383,-3.1628 -1.26939,-10.4827 -2.03458,-16.2665 -3.28381,-24.8208 -4.58535,-88.9828 -2.24763,-110.8015 1.01968,-9.517 2.08825,-11.5113 5.87041,-10.9562 1.65449,0.2428 2.94183,-0.038 2.98234,-0.6496 0.0392,-0.5922 0.2785,-2.7807 0.53177,-4.8633 l 0.46049,-3.7866 -3.94921,2.0148 c -2.17206,1.1081 -14.22385,6.4701 -26.78176,11.9157 -35.45763,15.3756 -58.78018,26.2345 -84.33257,39.265 -12.925,6.5911 -23.86285,12.3453 -24.30633,12.7871 -0.44348,0.4417 0.27985,2.1053 1.60741,3.6968 9.82264,11.7757 9.80491,32.613 -0.0367,43.1335 -8.14948,8.7117 -16.36232,12.1761 -29.27681,12.3498 -8.26628,0.1112 -9.34671,-0.1228 -16.53891,-3.5821 -13.69474,-6.5869 -20.68728,-16.1243 -21.10344,-28.7839 -0.35598,-10.8286 3.10423,-19.0213 11.31249,-26.7843 5.55895,-5.2574 13.66731,-9.5088 19.4614,-10.2039 2.52531,-0.303 3.30394,-0.8382 3.07683,-2.115 -0.33921,-1.907 -0.63362,-1.3916 16.63229,-29.1204 20.93807,-33.6263 49.20083,-74.60055 67.66168,-98.09332 l 6.35981,-8.09331 -21.08609,-0.65669 c -32.21361,-1.00322 -62.50285,-0.8025 -80.89813,0.53612 l -16.6345,1.21048 1.45298,4.04836 c 1.92613,5.36666 1.75957,17.72571 -0.32837,24.36619 -2.08993,6.64681 -8.33409,13.76406 -15.49488,17.66145 -7.01131,3.81604 -18.828551,4.68464 -26.993645,1.98413 -9.964909,-3.29579 -18.121477,-11.22024 -21.92639,-21.3024 C 55.82003,951.24217 58.827316,935.96095 66.90795,926.75762 71.864232,921.11273 78.719112,917 83.171445,917 H 87 v 4.50924 c 0,4.31838 -0.206208,4.63613 -4.871589,7.50677 -4.671254,2.87425 -8.303409,7.29569 -10.910211,13.28104 -1.788268,4.10596 -1.45369,12.59944 0.677663,17.20295 1.738755,3.75553 7.656457,10.36549 8.43981,9.4271 0.196094,-0.23491 1.050659,-1.85825 1.899034,-3.60744 1.472442,-3.03589 1.434795,-3.28152 -0.828917,-5.40817 -3.324952,-3.12363 -3.916652,-5.68951 -1.840935,-7.98315 2.104938,-2.32593 3.760122,-2.44662 5.460222,-0.39812 1.126848,1.35776 1.48312,1.30142 3.1614,-0.5 C 91.549316,947.42063 97,948.9251 97,953.46287 c 0,1.18013 0.962823,2.48529 2.25,3.05 5.08877,2.23257 2.21003,9.92914 -3.301492,8.82683 -2.524872,-0.50497 -2.994286,-0.1659 -4.387922,3.16954 C 90.702263,970.56349 90,972.41429 90,972.62212 90,972.82996 92.042927,973 94.539838,973 c 8.428052,0 15.549802,-5.43093 19.012902,-14.49893 1.53592,-4.02176 1.59436,-5.2718 0.48103,-10.28949 -1.56098,-7.0352 -3.03402,-9.96224 -6.69449,-13.30242 C 103.58143,931.48012 97.672026,928 95.607215,928 c -1.914391,0 -3.055133,-2.59588 -4.015277,-9.13721 -0.626867,-4.27075 -0.459836,-4.80973 2.113704,-6.82043 5.230641,-4.0867 14.763928,-9.338 40.794358,-22.47113 25.40905,-12.81963 28.90599,-14.48909 50.5,-24.10901 5.775,-2.5727 14.325,-6.39289 19,-8.48929 4.675,-2.09641 11.2083,-4.93479 14.51844,-6.30751 7.6652,-3.17877 41.70327,-14.5309 46.98156,-15.66895 6.39959,-1.3798 15.41639,-3.59329 23.53549,-5.77761 4.14452,-1.11502 9.09452,-2.27555 11,-2.57896 1.90548,-0.3034 5.71451,-0.9905 8.46451,-1.52688 8.47799,-1.6536 18.30338,-2.24017 18.98733,-1.13352 0.67962,1.09965 6.51267,1.44035 6.51267,0.3804 0,-0.35206 -3.4875,-7.21456 -7.75,-15.25 -4.2625,-8.03545 -7.91715,-15.0599 -8.12145,-15.6099 -0.2043,-0.55 -3.19988,-6.85 -6.65684,-14 -14.90805,-30.83413 -25.13816,-57.02399 -28.51478,-73 -0.69747,-3.3 -1.91123,-6.52749 -2.69725,-7.17219 -0.78602,-0.64471 -1.68238,-3.11971 -1.99193,-5.5 -0.46159,-3.54951 -1.66025,-5.49931 -6.66528,-10.84207 C 251.3122,661.32629 243.69219,643.58904 241.10667,612 c -1.20325,-14.70083 -0.0816,-26.04683 3.58761,-36.28935 2.26881,-6.33338 9.22816,-14.19992 13.93726,-15.75406 6.42389,-2.12008 15.60981,-0.73788 24.47675,3.683 0.33457,0.16681 0.18953,-2.00074 -0.3223,-4.81676 -0.59127,-3.25309 -2.08931,-6.56169 -4.10829,-9.07367 -3.14379,-3.91143 -3.1777,-4.07256 -3.1777,-15.10139 0,-9.09629 0.33204,-11.6368 1.80434,-13.80517 1.24314,-1.83088 1.45984,-2.87031 0.69673,-3.34194 -2.25011,-1.39064 -10.5281,-22.15693 -14.09435,-35.35729 -1.13573,-4.20386 -2.96034,-11.46837 -4.05469,-16.14337 -1.09435,-4.675 -2.87526,-12.1 -3.95756,-16.5 -1.08231,-4.4 -2.24834,-12.45373 -2.59118,-17.89718 l -0.62334,-9.89718 -3.98641,-3.60282 C 232.7135,403.66042 218.54226,392.9485 205.52752,385.474 c -7.3196,-4.20373 -8.77708,-6.43577 -6.11977,-9.37207 1.45685,-1.6098 1.38573,-1.92083 -0.89218,-3.90144 -1.89819,-1.65046 -2.34608,-2.79892 -1.92125,-4.92634 0.38152,-1.91058 -0.3723,-4.6419 -2.42161,-8.77415 -3.67987,-7.42014 -6.4119,-16.60439 -5.99026,-20.13742 0.47066,-3.94378 3.29055,-5.34399 5.73701,-2.8487 2.18587,2.2295 10.08054,22.55508 10.08054,25.95331 0,2.37578 1.69344,3.60695 20,14.54053 20.24061,12.08868 32.90756,22.18329 43.26411,34.47825 3.91207,4.64428 5.56938,5.91689 7.39412,5.67777 1.77041,-0.232 2.7833,0.47499 4.09683,2.85957 0.95972,1.74228 2.98244,4.76166 4.49494,6.70974 2.93753,3.7835 3.38111,6.21918 1.7035,9.35384 -0.82709,1.54542 -0.32134,3.57588 2.41217,9.68426 4.0785,9.11391 16.02294,39.30137 17.78678,44.95294 l 1.22859,3.93655 7.55948,-3.88364 c 25.03031,-12.85919 65.46564,-23.28659 107.55948,-27.73728 33.32664,-3.52371 94.92618,-3.52544 133.18996,-0.004 13.94945,1.28387 35.56252,3.73103 39.81004,4.50753 27.24686,4.98105 45.20752,9.5615 60.49743,15.42847 5.77358,2.21541 10.77821,4.02802 11.1214,4.02802 1.20328,0 19.34501,10.33598 24.3375,13.86593 11.97831,8.46928 20.32085,16.90973 24.78009,25.07089 l 1.73643,3.17794 4.47052,-3.07579 C 729.35295,519.59703 740.06156,515 744.82878,515 c 3.57116,0 4.27353,-0.291 3.78365,-1.5676 -0.33085,-0.86219 0.74572,-4.73364 2.39239,-8.60324 3.37467,-7.93036 5.97951,-17.21114 6.02698,-21.4735 0.0568,-5.09656 5.2423,-9.3497 8.9682,-7.35566 2.42051,1.29542 2.71729,6.42556 0.5,8.64286 -0.825,0.825 -1.50581,2.48035 -1.5129,3.67857 -0.0164,2.77468 -3.09964,12.63033 -6.41666,20.51122 -1.41374,3.3589 -2.56586,6.45814 -2.56027,6.88722 0.006,0.42907 1.91809,1.65205 4.25,2.71772 2.33191,1.06568 4.5046,2.09144 4.82821,2.27946 C 766.85888,521.74577 776,497.13339 776,491.33761 776,486.94838 778.48954,481 780.32653,481 c 2.61574,0 3.87562,2.88654 4.24528,9.72641 0.3165,5.85646 -0.1092,8.0133 -3.14409,15.92963 -2.24351,5.85205 -4.91843,10.75591 -7.41277,13.58963 l -3.90261,4.4336 5.44383,5.3762 c 2.99411,2.95692 5.44383,5.98064 5.44383,6.71939 0,0.73874 0.43904,1.07183 0.97565,0.74019 1.69778,-1.04929 7.79803,-12.86845 8.52394,-16.51505 1.0215,-5.13144 3.16872,-8 5.98828,-8 5.23735,0 5.0027,5.1474 -0.83314,18.27576 -2.4999,5.62379 -8.39787,14.88786 -9.90473,15.55757 -0.4125,0.18334 -0.75,1.32071 -0.75,2.5275 0,1.20679 -0.73362,3.24155 -1.63027,4.52169 -1.57582,2.2498 -1.49883,2.45897 2.30529,6.26309 l 3.93556,3.93556 3.44471,-5.29059 c 1.89459,-2.90982 4.74503,-7.76558 6.3343,-10.79058 5.99747,-11.41548 9.37343,-13.80898 11.84036,-8.39465 1.0482,2.30055 0.74457,3.46496 -2.59531,9.95296 -2.08032,4.04118 -5.38543,9.44703 -7.3447,12.013 -4.65641,6.09832 -5.48388,11.94321 -2.31988,16.38665 l 2.21324,3.1082 2.83931,-4.28308 c 1.56163,-2.35569 4.21193,-5.59667 5.88956,-7.20216 2.69164,-2.5759 3.34635,-2.78416 5.56903,-1.77144 1.38534,0.6312 2.5188,1.80846 2.5188,2.61612 0,1.49881 -9.07828,14.20474 -11.53528,16.14474 -1.11733,0.88222 -0.95245,1.73832 0.93812,4.87086 l 2.2937,3.80051 2.90173,-4.0995 c 2.96283,-4.18583 5.90328,-5.24066 8.20173,-2.94221 1.90778,1.90778 1.43899,3.72848 -2.3,8.93288 -1.925,2.67946 -3.5,5.25433 -3.5,5.72194 0,0.4676 2.20237,5.52906 4.89416,11.24768 2.69179,5.71863 5.46302,12.31 6.15829,14.6475 1.73978,5.84914 4.32902,5.76348 5.82884,-0.19282 1.59324,-6.32733 1.42281,-9.35156 -0.54853,-9.73386 -1.49388,-0.2897 -1.68533,-2.76698 -1.84116,-23.82332 -0.1569,-21.20146 -0.42897,-24.67372 -2.78161,-35.5 C 820.8443,532.50751 816.70333,522.07615 801.89918,497 785.1135,468.56741 755.93306,442.64231 718.39886,422.8149 l -14.09313,-7.44469 -5.90287,8.56489 c -3.24657,4.7107 -7.92786,10.75057 -10.40286,13.42194 -2.475,2.67138 -6.53305,7.84638 -9.0179,11.5 -3.12641,4.59698 -5.18949,6.67714 -6.69846,6.75395 -1.19931,0.061 -4.55955,2.24991 -7.4672,4.86414 -7.68225,6.90701 -12.38766,8.06308 -14.76186,3.62685 -1.44108,-2.69268 1.15462,-6.74889 9.02431,-14.10198 3.82616,-3.575 7.73616,-7.69686 8.68889,-9.15969 0.95272,-1.46283 4.3944,-6.41283 7.64818,-11 10.59619,-14.9385 14.06998,-20.13812 22.60821,-33.84031 9.2463,-14.83849 16.85724,-25.65926 21.47583,-30.53301 2.27327,-2.39886 3,-4.10506 3,-7.04333 0,-3.7317 -0.21368,-3.97907 -5.67964,-6.57488 -3.12379,-1.48352 -8.17971,-4.29658 -11.23536,-6.25126 -3.05565,-1.95467 -8.26232,-4.92024 -11.57037,-6.59013 C 689.11204,336.53257 688,335.51591 688,333.50866 c 0,-1.49223 0.94066,-3.0789 2.38725,-4.02674 2.28461,-1.49694 2.87575,-1.29789 13.75,4.62996 6.24951,3.40679 12.93775,7.17956 14.86275,8.38394 1.925,1.20439 4.85,2.63328 6.5,3.17531 2.03473,0.66843 3.11241,1.75745 3.34935,3.3846 0.50533,3.47025 4.46219,6.79853 7.41208,6.23463 1.87204,-0.35787 3.99712,0.88844 9.33133,5.47256 6.71367,5.76961 23.39211,15.86502 47.90724,28.9981 6.6,3.53571 13.35,7.23752 15,8.22624 1.65,0.98872 12.675,6.60974 24.5,12.49114 11.825,5.8814 23.075,11.5144 25,12.51777 1.925,1.00338 8.17766,3.89288 13.8948,6.4211 9.1285,4.0368 10.81232,4.48149 13.82222,3.65042 6.18826,-1.70866 12.79426,4.20148 9.34355,8.35932 -0.84178,1.01429 -0.45725,1.57748 1.67324,2.45068 3.2272,1.32269 14.99814,0.19037 14.36554,-1.3819 -0.22036,-0.54769 -1.96374,-4.46414 -3.87417,-8.70323 l -3.47352,-7.70745 -1.81318,2.20745 c -2.60663,3.17341 -4.97848,1.35355 -7.43848,-5.70738 -1.98606,-5.70056 -1.98632,-5.7506 -0.0382,-7.178 1.91837,-1.40559 1.88051,-1.5976 -1.71019,-8.6723 -11.47739,-22.61375 -28.88841,-56.23152 -30.56178,-59.00972 -2.00418,-3.3274 -2.74482,-4.64592 -14.45042,-25.72516 -14.05032,-25.30157 -24.57612,-40.70102 -34.57916,-50.59 -6.33431,-6.26208 -8.0299,-10.41 -4.25541,-10.41 1.63705,0 1.83128,-0.54849 1.38156,-3.90143 -0.43977,-3.27868 -0.17692,-4.0868 1.64674,-5.06279 3.3615,-1.79902 6.34438,-0.84555 8.55112,2.73336 1.10866,1.79803 4.35596,6.74803 7.21623,11 23.30205,34.63996 21.44087,31.61524 43.5223,70.73086 7.14114,12.65 18.33104,33.8 24.86644,47 11.12347,22.46685 17.88777,35.52016 25.08015,48.39808 2.12778,3.80978 2.90144,6.36956 2.6294,8.69983 -0.37676,3.2272 -0.27157,3.32822 4.65788,4.4732 11.83517,2.74902 24.04272,12.06699 30.42624,23.22423 9.41194,16.45035 5.04948,41.89884 -9.56706,55.80965 -7.74414,7.37024 -13.35293,10.49492 -23.39785,13.03507 -29.01298,7.33677 -60.07646,-12.35685 -62.52578,-39.64006 -0.81521,-9.08073 0.92597,-20.00121 4.34285,-27.23783 1.68511,-3.5689 5.30349,-8.34968 9.50625,-12.56008 l 6.78555,-6.79792 -29.50507,-14.45208 C 838.294,428.50344 824.83533,422 824.61362,422 c -0.22171,0 -6.86297,-3.43086 -14.75836,-7.62414 C 801.95987,410.18258 790.325,404.05476 784,400.75849 c -6.325,-3.29627 -12.69447,-6.8404 -14.15437,-7.87585 C 768.38573,391.84719 766.90468,391 766.55441,391 c -1.3609,0 -29.189,-18.89643 -31.47872,-21.37536 C 733.74231,368.18109 732.35104,367 731.98397,367 c -0.36707,0 -1.23204,1.9125 -1.92217,4.25 -0.69012,2.3375 -2.22075,5.825 -3.4014,7.75 -2.09867,3.4218 -4.43353,7.48815 -6.60319,11.5 -0.5949,1.1 -3.07525,5.15 -5.5119,9 -2.77173,4.37943 -3.98385,7.13918 -3.23779,7.37176 4.43344,1.38215 16.40895,7.15646 24.55613,11.8404 35.98379,20.68759 64.26575,48.11438 82.01786,79.53784 1.16517,2.0625 2.94973,5.21627 3.9657,7.00838 7.42272,13.09331 16.91472,40.09513 19.06765,54.24162 0.66963,4.4 1.61875,9.81138 2.10914,12.02528 2.54002,11.46702 3.30677,27.87579 2.00476,42.90292 -0.71684,8.27332 -1.65314,16.26207 -2.08067,17.75279 -0.73728,2.57074 -0.45259,2.86237 5.52485,5.65955 6.12978,2.86847 13.82881,9.5311 18.10976,15.67192 2.8549,4.09521 6.4173,15.05022 6.4173,19.73431 0,5.88394 -2.88725,17.2996 -5.60549,22.16306 -8.1821,14.63936 -20.6196,22.26131 -38.02679,23.30357 -9.77342,0.58519 -16.29929,-0.71968 -25.33283,-5.0654 -5.82842,-2.80384 -15.9382,-12.28853 -18.78672,-17.62512 C 782.75873,691.35899 780,680.64885 780,675.64805 c 0,-4.291 2.44907,-13.49779 5.07853,-19.09172 3.95838,-8.42109 14.56234,-17.51324 24.54752,-21.04777 l 5.12605,-1.81451 -3.82115,-8.60866 c -11.81172,-26.6106 -31.87495,-55.23796 -54.44154,-77.6803 l -7.1342,-7.09491 -8.4276,0.47048 c -4.71698,0.26333 -9.74849,1.14929 -11.42761,2.0122 -1.65,0.84795 -4.25773,1.80394 -5.79497,2.12443 -2.39092,0.49847 -3.13066,1.5435 -5.11717,7.22905 l -2.3222,6.64633 7.70323,-0.52799 c 9.06791,-0.62153 13.08454,0.46861 19.3481,5.25119 5.40396,4.12623 9.87836,11.14202 12.89589,20.22054 3.22887,9.7144 3.24466,29.38854 0.0325,40.51012 -5.02222,17.38866 -11.93106,31.78674 -24.83365,51.75347 -6.70074,10.36938 -11.40197,19.42974 -14.45588,27.85984 -4.44698,12.27552 -15.54139,21.12973 -24.9025,19.87414 -3.8472,-0.51601 -3.94759,-0.45421 -3.43943,2.11725 0.90841,4.59683 -1.42308,18.66019 -4.0953,24.70256 -2.91451,6.59023 -8.49156,15.6492 -26.59321,43.19621 l -12.64954,19.25 14.61206,0.005 c 10.17424,0.004 18.25658,0.63038 26.61206,2.06341 6.6,1.13195 14.53102,2.48028 17.62449,2.9963 5.59052,0.93254 28.99295,6.82601 42.37551,10.67148 3.85,1.1063 10.6,2.99143 15,4.18919 19.79864,5.38954 51.95244,16.38469 69,23.59489 4.33133,1.83192 7.07561,2.97822 15.5,6.47441 13.87459,5.75807 14.93559,6.27634 16.58888,8.1032 2.16697,2.39447 1.16706,6.36037 -2.1519,8.53504 -2.45673,1.60971 -2.97893,1.47486 -17.73412,-4.57968 C 813.993,863.27297 790.57421,854.66032 774.5,849.97081 c -6.05,-1.76503 -14.375,-4.24476 -18.5,-5.51051 -21.35532,-6.55283 -48.78138,-13.10409 -58.5,-13.97387 -4.4,-0.39379 -13.625,-1.78688 -20.5,-3.09576 -6.875,-1.30888 -15.2,-2.39296 -18.5,-2.40908 -8.21582,-0.0401 -13.58472,-1.44244 -15.56284,-4.0649 l -1.66215,-2.20356 -3.96335,5.39344 c -2.17984,2.96638 -6.77349,9.58591 -10.2081,14.71006 -3.43462,5.12415 -10.53335,15.01917 -15.77496,21.98894 l -9.53021,12.67231 5.3508,1.11785 c 14.69006,3.06894 33.07307,13.98664 47.60081,28.27021 6.878,6.76239 8.11677,10.49361 4,12.04812 -2.95465,1.11568 -4.72808,0.12719 -13.55086,-7.55314 C 632.62232,896.41267 621.55759,889.75053 608,884.9631 c -3.575,-1.2624 -7.21043,-2.89553 -8.07874,-3.62918 C 599.05295,880.60026 598.09897,880 597.8013,880 c -0.47879,0 -16.80578,20.66624 -16.79834,21.26287 0.002,0.13042 2.37413,0.23713 5.27223,0.23713 4.3913,0 6.43194,0.69136 12.24705,4.14927 8.11193,4.8237 23.48848,18.82389 25.70815,23.40701 2.07192,4.27803 1.24903,6.94372 -2.1435,6.94372 -1.97819,0 -4.76226,-1.99949 -10.63336,-7.63678 -10.28068,-9.87125 -17.89625,-15.49888 -24.72375,-18.26996 -3.14252,-1.27545 -5.88279,-3.1211 -6.41937,-4.32362 -0.87787,-1.96739 -1.18167,-1.79968 -4.87332,2.69029 -46.66029,56.75053 -66.25335,72.75008 -93.93709,76.70831 -9.17202,1.31143 -31.70845,0.41744 -37.59943,-1.49152 -11.15855,-3.61589 -21.80258,-10.59666 -30.94517,-20.29505 -6.61128,-7.0132 -17.39158,-23.14243 -21.97713,-32.88167 -1.8127,-3.85 -6.51533,-12.4 -10.45029,-19 -9.41614,-15.79347 -23.30967,-41.03283 -33.85395,-61.5 -5.09167,-9.88329 -9.03653,-16.42102 -9.83725,-16.30305 -0.73523,0.10833 -3.13678,0.68567 -5.33678,1.28298 -2.2,0.59732 -8.275,1.46972 -13.5,1.93869 -11.5747,1.03887 -25.20776,3.99402 -34.22459,7.41862 -3.69853,1.4047 -6.95863,2.17532 -7.24467,1.71249 -0.65828,-1.06511 -5.58969,0.0532 -12.03074,2.72818 -5.96644,2.47791 -16.69788,6.29865 -37,13.17321 -17.52026,5.93259 -31.80407,11.7987 -50.32555,20.66785 -7.32906,3.50956 -13.5682,6.38103 -13.86476,6.38103 -0.85996,0 -49.35399,23.88738 -54.17566,26.68606 l -4.36598,2.53418 5.86598,3.74812 c 4.44518,2.8403 6.30237,3.52502 7.6677,2.82701 2.71812,-1.3896 27.45204,-2.61877 75.19827,-3.73702 42.4251,-0.99363 63.32961,-0.64518 66.75,1.11265 2.04378,1.05035 2.37453,6.07707 0.5,7.59895 -0.6875,0.55816 -2.15,1.18411 -3.25,1.391 -1.49683,0.28152 -1.92311,1.03272 -1.69439,2.98586 0.22952,1.95988 -0.98035,4.0718 -4.8588,8.48145 -16.36615,18.6077 -64.38891,88.06344 -82.3623,119.12134 -2.62574,4.5372 -5.22417,8.5277 -5.77428,8.8677 -0.96288,0.5951 6.33003,4.3827 8.43873,4.3827 0.56681,0 1.53016,-0.6596 2.1408,-1.4657 0.61063,-0.8061 4.48524,-3.2131 8.61024,-5.3489 4.125,-2.1358 12.98316,-6.8636 19.68479,-10.5063 11.03227,-5.9965 28.95902,-14.8677 46.31521,-22.9194 5.43543,-2.5215 47.69162,-20.9361 64.28121,-28.0128 3.8974,-1.6625 5.24234,-1.8294 7.27584,-0.9029 2.25812,1.0289 2.59712,0.8769 3.57561,-1.6037 2.03301,-5.15373 2.57252,-5.74065 5.55336,-6.04137 5.15834,-0.52038 5.60702,1.09361 4.16485,14.98187 -1.2085,11.638 -1.97828,126.7282 -0.97197,145.3192 0.2084,3.85 0.0455,8.8462 -0.3619,11.1026 -0.72765,4.0298 -0.68334,4.1141 2.4961,4.75 7.32803,1.4656 9.33465,0.8986 11.74238,-3.3179 2.3418,-4.1011 17.52525,-24.6935 28.35117,-38.451 3.42618,-4.3539 11.62926,-15.1539 18.22907,-24 34.47893,-46.2138 41.39726,-55.2155 52.32619,-68.0837 10.17265,-11.9777 12.30415,-14 14.7562,-14 1.94742,0 3.51043,0.8631 4.87648,2.6928 1.89604,2.5395 1.91641,2.8362 0.35793,5.2148 -0.90889,1.3871 -1.65252,3.0207 -1.65252,3.6303 0,0.6095 -3.9375,6.0629 -8.75,12.1186 -4.8125,6.0557 -9.875,12.4874 -11.25,14.2926 -9.30351,12.2144 -33.54291,43.365 -44.27588,56.8999 -29.54444,37.2572 -36.33351,46.037 -41.30264,53.4136 l -3.54507,5.2625 3.25466,2.7375 c 5.65114,4.753 7.04987,6.5715 10.18221,13.2374 2.62731,5.5912 3.06361,7.6884 3.12054,15 0.0578,7.4273 -0.2892,9.1941 -2.74976,14 -6.50589,12.7071 -17.314,19.6343 -31.89213,20.4404 -4.56056,0.2522 -9.86693,0.1164 -11.79193,-0.3018 z m 15.92709,-12.2079 c 5.24678,-1.2093 13.55285,-7.0243 15.55007,-10.8865 3.21926,-6.2254 3.8221,-11.503 2.02145,-17.697 -6.73828,-23.1788 -41.00712,-24.2189 -49.55288,-1.5039 -3.50043,9.3043 -0.95734,18.3302 6.8856,24.4382 3.29672,2.5675 7.83178,4.4651 8.57608,3.5886 0.17285,-0.2036 0.59559,-2.2099 0.93943,-4.4586 0.55673,-3.6411 0.35488,-4.2332 -1.84427,-5.4101 -2.78798,-1.4921 -3.9272,-4.0881 -3.03189,-6.909 0.77963,-2.4564 3.17028,-3.3549 5.54491,-2.0841 1.54222,0.8254 2.10149,0.5175 3.18495,-1.7535 2.45612,-5.1483 9.79946,-3.913 9.79946,1.6484 0,2.0033 0.70113,2.923 2.84539,3.7323 5.85752,2.211 4.02257,9.3645 -2.40209,9.3645 -2.58134,0 -3.46388,0.4381 -3.52553,1.75 -0.0452,0.9625 -0.28562,2.9875 -0.53421,4.5 -0.50823,3.0922 -0.53944,3.0828 5.54353,1.6807 z M 164.44686,1128.3634 c 12.80258,-4.3623 18.99213,-18.3348 13.56093,-30.6129 -4.9391,-11.1656 -18.74778,-17.1441 -31.50779,-13.6413 -12.69555,3.4851 -21.17904,20.3355 -15.87039,31.5227 1.88028,3.9624 8.3243,9.8078 12.3651,11.2164 2.67081,0.9311 2.82927,0.7951 4.30051,-3.6908 1.39915,-4.2661 1.3879,-4.7597 -0.13385,-5.8734 -3.54163,-2.592 -4.16137,-3.441 -4.16137,-5.7011 0,-3.0687 2.38671,-4.9537 5.33518,-4.2137 1.84611,0.4633 2.60499,0.057 3.47898,-1.8608 1.66182,-3.6473 6.03542,-4.4125 8.41609,-1.4725 1.21186,1.4966 1.68394,3.1697 1.31223,4.6508 -0.39425,1.5708 -0.14281,2.3132 0.78348,2.3132 0.75024,0 2.18021,0.9018 3.17772,2.0041 1.49857,1.6559 1.61608,2.4376 0.67642,4.5 -0.89304,1.96 -1.87887,2.4959 -4.59127,2.4959 -3.61572,0 -3.77851,0.2157 -5.09363,6.75 -0.78358,3.8933 0.49767,4.1532 7.95166,1.6134 z M 477.04399,971.99166 c 2.92433,-0.55459 6.11998,-1.73506 7.10145,-2.62328 1.11493,-1.009 2.78873,-1.42296 4.46101,-1.10328 4.12017,0.78762 15.69885,-5.73034 27.10134,-15.2561 0.66429,-0.55495 1.56429,-1.01115 2,-1.01378 1.81754,-0.011 20.58477,-19.51758 27.23421,-28.30717 2.41824,-3.19658 5.12649,-6.34658 6.01833,-7 0.89183,-0.65343 2.68751,-2.76305 3.9904,-4.68805 1.30288,-1.925 3.18443,-4.4 4.18122,-5.5 8.61523,-9.50728 21.30597,-26.14885 27.66251,-36.27429 4.23805,-6.75086 22.10554,-33.91232 39.70554,-60.35882 42.39637,-63.70654 38.71884,-57.64805 36.4001,-59.96679 -2.69068,-2.69068 -2.38187,-6.53049 1.50557,-18.72066 4.71595,-14.78817 4.58908,-13.96108 6.07757,-39.6201 0.84699,-14.6005 1.73265,-23.1313 2.42546,-23.36224 0.60021,-0.20007 1.0913,-2.52748 1.0913,-5.17203 0,-4.19329 0.29628,-4.88262 2.31658,-5.38968 1.27412,-0.31978 2.92516,-1.71857 3.66898,-3.10841 0.74382,-1.38984 1.72636,-2.52698 2.18342,-2.52698 0.45706,0 -0.0614,-0.89243 -1.15216,-1.98318 -1.59147,-1.59147 -2.82592,-1.86866 -6.25,-1.40341 -4.16789,0.56631 -4.34218,0.4725 -7.51682,-4.04606 -3.54263,-5.04234 -3.99343,-7.03789 -1.86766,-8.26766 1.579,-0.91346 2.1526,-4.57393 3.5727,-22.79969 0.55711,-7.15 1.23289,-14.23253 1.50173,-15.73896 0.29607,-1.65892 -0.25867,-4.02485 -1.4068,-6 -1.04258,-1.79357 -2.20613,-5.39652 -2.58566,-8.00655 -0.54053,-3.71726 -1.4562,-5.4182 -4.22593,-7.85005 -1.94473,-1.7075 -4.65692,-4.43682 -6.02708,-6.06517 l -2.49121,-2.96063 1.81664,-5.99994 c 1.66186,-5.48875 1.70251,-6.86806 0.47711,-16.18932 -0.73673,-5.60416 -1.42975,-11.96378 -1.54003,-14.13248 -0.19436,-3.82222 -0.36564,-4.0002 -5.58716,-5.80569 -16.09867,-5.56658 -52.84803,-13.64902 -71.38665,-15.70038 -26.98829,-2.98634 -69.38453,-4.40441 -107.5,-3.59565 -39.12372,0.83014 -42.42652,1.01231 -66,3.64022 -31.84281,3.54977 -60.34594,11.44955 -82.62717,22.90054 -17.08773,8.78189 -15.87283,7.32977 -15.87283,18.97222 0,6.60882 -0.41797,10.34722 -1.25,11.18029 -1.64592,1.64796 -1.57138,10.34188 0.13059,15.23084 0.95447,2.74178 1.08192,4.94098 0.43462,7.5 -1.58933,6.28324 -1.90549,14.79177 -0.71659,19.28508 1.96679,7.43324 2.12821,14.26272 0.54258,22.95506 -0.84082,4.60932 -2.04631,12.86879 -2.67885,18.3544 -0.63254,5.48561 -1.95228,11.56061 -2.93276,13.5 C 296.05456,664.85851 294,676.28046 294,686.93491 c 0,12.78806 3.61309,27.44428 11.47936,46.56509 7.33011,17.81754 30.9531,66.80488 33.99698,70.5 0.6796,0.825 3.87828,6.225 7.10818,12 3.2299,5.775 6.5572,11.63976 7.39401,13.03281 0.83681,1.39304 2.87147,4.89962 4.52147,7.79241 1.65,2.89278 6.25248,10.75302 10.22773,17.46719 5.93873,10.03047 7.24541,13.01013 7.32685,16.70759 0.14227,6.45873 2.19496,12.56057 4.11653,12.2368 0.85915,-0.14476 2.11878,0.40757 2.79919,1.22741 1.34484,1.62044 14.52699,29.35392 15.62588,32.87478 0.90388,2.89603 10.18049,18.52368 12.85803,21.66101 1.17349,1.375 2.89407,4.1875 3.82352,6.25 1.68795,3.74565 3.05617,4.63679 4.22227,2.75 0.95656,-1.54775 2.09036,-1.21557 5.42327,1.58889 2.07514,1.74612 3.07673,3.49267 3.07673,5.36514 0,4.10469 3.07118,7.31015 10.99162,11.47223 10.67859,5.61144 25.99641,7.85176 38.05237,5.5654 z M 463,949.62244 c 0,-0.75765 0.69758,-1.95649 1.55019,-2.66409 1.27704,-1.05985 1.8265,-1.01023 3.11832,0.28159 0.86248,0.86248 1.26334,2.06132 0.8908,2.6641 C 467.57385,951.49855 463,951.26687 463,949.62244 Z m -6.34637,-39.61315 c -5.0442,-0.90662 -9.86765,-3.68015 -15.40363,-8.85724 -3.67313,-3.43501 -3.90716,-4.35203 -1.67923,-6.57997 1.4277,-1.4277 1.98594,-1.28513 6.12874,1.56518 2.50687,1.72478 6.59654,3.74949 9.08815,4.49935 6.81751,2.05177 19.15745,1.74001 26.29456,-0.66431 6.41219,-2.16011 7.91778,-1.96727 7.91778,1.01414 0,5.99662 -19.27268,11.37263 -32.34637,9.02285 z M 461,877.30563 c -11.59326,-1.42844 -24.05484,-6.28461 -33.32389,-12.98605 -10.15699,-7.34342 -22.92391,-20.6968 -33.77034,-35.32163 -3.89727,-5.2549 -22.76564,-35.11854 -29.37821,-46.49795 -3.19605,-5.5 -8.50993,-14.725 -11.80861,-20.5 -3.29869,-5.775 -7.67436,-12.975 -9.72371,-16 -2.04935,-3.025 -6.03665,-9.53112 -8.86067,-14.45804 C 330.24477,724.75562 329,723.2126 329,725.17713 c 0,3.67138 2.98653,12.67267 5.61802,16.93249 2.99507,4.84837 3.3222,7.22765 1.05758,7.69178 -2.58182,0.52913 -5.4394,-2.40105 -8.7695,-8.99229 -3.84766,-7.61564 -5.8739,-13.63179 -5.89155,-17.49269 -0.0125,-2.72529 -0.41042,-3.22913 -2.76455,-3.5 -1.93692,-0.22286 -2.84158,-0.95956 -3.05975,-2.49164 -0.38308,-2.69016 3.56151,-9.09667 7.79354,-12.65768 4.18953,-3.52526 11.28665,-3.62745 19.5938,-0.28212 3.25733,1.31175 7.49741,2.71371 9.42241,3.11548 4.85344,1.01296 6.3716,2.34686 4.81109,4.22716 -1.19863,1.44426 -8.839,1.26772 -17.29037,-0.39951 -2.22562,-0.43906 -0.83432,0.86359 5.5,5.14953 4.66361,3.1555 9.37928,6.50879 10.47928,7.45177 5.26111,4.51008 26.31498,15.50325 37,19.31935 8.76914,3.13186 26.07112,7.48168 38.5,9.67914 8.62076,1.52417 9.6231,1.9341 10.8301,4.42914 1.14504,2.36697 1.10074,3.09956 -0.3184,5.26545 -1.58688,2.42188 -1.97302,2.50227 -10.3301,2.15062 -19.35973,-0.81464 -46.26049,-10.20466 -74.14666,-25.88178 -7.45963,-4.19367 -7.46367,-4.19461 -5.562,-1.29403 1.04668,1.59649 2.48606,4.02557 3.19862,5.39797 1.98537,3.82381 21.90546,23.55007 25.57727,25.32838 l 3.24928,1.57367 1.51034,-3.19866 c 2.52056,-5.33815 5.08695,-4.28379 6.68345,2.74578 0.74253,3.26944 2.12811,6.80614 3.07908,7.85934 3.35212,3.7125 19.53668,10.63293 24.9871,10.68435 0.85255,0.008 1.20276,-1.45041 1.08648,-4.52462 -0.18785,-4.96631 0.94305,-6.8411 3.79922,-6.29832 1.51603,0.28811 1.94786,1.54238 2.35622,6.84378 0.48189,6.25593 0.62832,6.55381 4.04282,8.22441 5.77212,2.82409 22.75655,5.33152 28.54617,4.2143 L 464.5,795.5 464.76372,791 c 0.44216,-7.54497 1.03199,-9 3.64834,-9 2.86402,0 3.58794,1.62353 3.58794,8.0466 0,3.78687 0.42977,5.11304 1.91448,5.90763 2.70602,1.44822 14.02533,1.18034 24.51785,-0.58024 9.52564,-1.59834 11.75085,-2.42418 15.3381,-5.69246 1.98404,-1.80762 2.67778,-1.92275 5.5,-0.91276 3.68652,1.31931 6.97577,0.72597 16.79649,-3.02986 C 549.82,780.47917 556,776.37983 556,772.51682 c 0,-1.17401 0.64347,-3.00807 1.42993,-4.07569 1.40487,-1.90711 1.46689,-1.9017 3.53896,0.30887 1.15996,1.2375 2.69616,2.25 3.41378,2.25 2.36238,0 13.95492,-8.44143 15.55235,-11.32487 0.86074,-1.55368 2.12748,-3.57868 2.81498,-4.5 1.16778,-1.56494 1.33727,-1.56303 2.57678,0.0291 1.21399,1.55936 1.82884,1.30431 7.23237,-3 C 601.95927,744.71635 616,729.40651 616,726.64462 c 0,-0.27226 -4.6125,2.41875 -10.25,5.98003 -24.20843,15.29276 -54.14414,27.16332 -81.3102,32.24233 -9.30381,1.73945 -27.87657,1.47564 -31.59809,-0.44883 -2.70144,-1.39697 -2.98564,-1.9485 -2.43159,-4.71875 0.34506,-1.7253 1.07596,-3.58548 1.62423,-4.13375 0.54826,-0.54826 6.27732,-1.3095 12.73125,-1.69164 6.45392,-0.38215 14.4344,-1.20405 17.7344,-1.82647 3.3,-0.62241 8.57216,-1.57009 11.7159,-2.10595 11.94476,-2.036 38.22096,-12.09469 53.7841,-20.58887 13.02597,-7.10942 40.99481,-26.52112 39.11506,-27.1477 -1.24993,-0.41664 -8.55376,1.03941 -18.55691,3.69942 -5.2491,1.39582 -8.27801,1.7757 -8.93333,1.12038 -1.2597,-1.2597 -1.97362,-0.79168 10.81789,-7.09173 9.28129,-4.57121 11.96922,-5.44749 17.70362,-5.77152 7.35761,-0.41574 12.10836,1.50572 15.09704,6.10604 1.83479,2.82421 3.09098,12.093 1.95813,14.44809 -7.15662,14.87797 -12.40109,22.89702 -14.23387,21.7643 -0.47929,-0.29622 -0.0302,-2.50116 0.99802,-4.89987 2.45418,-5.72537 5.45589,-16.49193 4.78498,-17.16283 -0.29051,-0.29052 -2.67842,3.43424 -5.30645,8.27725 -6.8052,12.54076 -25.11363,42.54944 -35.26738,57.80545 -30.38875,45.65911 -49.94295,67.61913 -73.35175,82.37647 -9.29304,5.85851 -23.22989,11.71312 -32.38417,13.60399 -6.85934,1.41684 -21.34398,1.82281 -29.44088,0.82517 z m 75.88433,-38.6825 2.23296,-2.37688 -2.59644,-0.65166 c -1.42804,-0.35842 -3.36693,-0.15485 -4.30865,0.45238 -1.60095,1.03231 -1.59849,1.06869 0.0378,0.55992 2.02286,-0.62896 2.14412,-0.21184 0.71482,2.45885 -1.51862,2.83755 1.11763,2.53985 3.91951,-0.44261 z m -149.21946,21.20333 c -0.31262,-1.19545 -0.3219,-2.57238 -0.0206,-3.05984 0.63606,-1.02917 3.27694,2.13563 3.32396,3.98338 0.0544,2.1395 -2.704,1.36829 -3.30333,-0.92354 z m -3.97102,-6.46594 C 382.89492,852.56159 383.79804,851 385.05902,851 c 0.51754,0 0.94098,0.675 0.94098,1.5 0,1.54641 -1.17996,1.9867 -2.30615,0.86052 z m 174.99072,-2.41595 c -1.1638,-1.35921 -2.4218,-1.84536 -3.71398,-1.43524 -3.62429,1.15031 -0.63122,-3.83796 3.49321,-5.82181 4.97908,-2.39493 6.5362,-1.66092 6.5362,3.0811 0,5.982 -3.04505,7.99548 -6.31543,4.17595 z M 515.25,784.30163 c -1.65245,-0.61907 -1.60276,-4.76398 0.0738,-6.15539 1.43355,-1.18974 3.67621,0.25157 3.67621,2.36263 0,1.84654 -2.41776,4.29187 -3.75,3.79276 z m -71.07429,-32.28421 c -2.92837,-1.07038 -6.84709,-2.88727 -8.70828,-4.03755 -4.81231,-2.97417 -13.57228,-14.38174 -15.56577,-20.27035 -1.44626,-4.27215 -2.22222,-5.17756 -5.3625,-6.25714 C 407.45133,719.0157 404,713.99299 404,706.11476 c 0,-6.46221 0.89489,-8.61385 5.97447,-14.36476 4.18822,-4.74176 7.1187,-5.80269 11.44374,-4.14301 2.23471,0.85753 1.97663,5.11133 -0.38683,6.37622 -1.08275,0.57947 -3.10775,2.99733 -4.5,5.37304 -4.35521,7.4316 -3.05743,12.04599 3.70558,13.17559 5.81403,0.97109 9.39928,3.71563 10.16152,7.77873 0.999,5.32509 5.87942,12.11467 10.21665,14.21326 6.07647,2.94014 15.94758,3.15007 22.17389,0.47159 5.70395,-2.45378 13.29063,-9.86351 15.50366,-15.14206 0.77324,-1.84435 3.5363,-5.82836 6.14013,-8.85336 5.14117,-5.97277 8.57608,-11.88118 8.55188,-14.71016 -0.013,-1.51707 -0.15987,-1.56124 -0.96384,-0.28984 -0.83069,1.31366 -1.16302,1.28556 -2.67516,-0.22619 -0.94965,-0.94941 -1.52843,-1.88588 -1.28617,-2.08106 C 493.50148,689.30842 498.67318,686 500.08479,686 c 0.98844,0 2.04208,-0.39627 2.34142,-0.8806 1.14265,-1.84885 6.17397,-1.91883 10.2224,-0.14218 5.29568,2.32401 9.0302,8.43861 9.95388,16.29767 1.39897,11.90303 -5.08047,19.89349 -16.39287,20.21572 -7.55806,0.21528 -9.59345,1.48374 -12.47279,7.77306 -2.95481,6.45415 -11.99791,16.41198 -18.96369,20.88191 -4.87502,3.12829 -5.7482,3.33297 -15.22241,3.56831 -7.92509,0.19686 -11.17677,-0.16193 -15.37502,-1.69647 z m 29.50066,-11.26846 C 478.08058,737.60402 484.76975,730 483.13211,730 c -0.52918,0 -2.69389,1.96738 -4.81048,4.37195 -2.11659,2.40457 -6.09233,5.82337 -8.83499,7.59733 -2.89844,1.87472 -3.93974,2.91896 -2.48664,2.49365 1.375,-0.40244 4.37937,-2.07373 6.67637,-3.71397 z m 11.8825,-23.30413 c 1.83031,-1.46637 1.7984,-1.48719 -0.55887,-0.36454 -3.06103,1.45781 -3.62834,1.91971 -2.3578,1.91971 0.53655,0 1.84905,-0.69982 2.91667,-1.55517 z m 22.88226,-6.97663 c 1.81969,-1.37635 1.71021,-1.4682 -1.75,-1.4682 -3.58827,0 -4.96567,1.31905 -2.44113,2.33772 1.88324,0.7599 2.09489,0.71599 4.19113,-0.86952 z m -4.27617,-16.83552 c 2.61908,-0.0948 3.39514,-0.4578 2.71946,-1.27194 -2.41508,-2.91 -9.99757,-2.11422 -11.26244,1.18199 -0.55096,1.43577 -0.22673,1.58293 2.11361,0.95928 1.52043,-0.40516 4.41364,-0.79636 6.42937,-0.86933 z m -39.62002,23.50891 c -0.34364,-1.08271 0.458,-3.69144 1.92057,-6.25 2.76646,-4.83953 3.19547,-8.83612 1.28449,-11.96606 -1.05777,-1.73249 -0.96593,-2.25808 0.5972,-3.41775 2.44823,-1.81631 4.17257,-1.02088 6.7191,3.0995 2.80538,4.5392 1.90629,9.83135 -2.69378,15.85588 -3.63677,4.76294 -6.82025,5.85226 -7.82758,2.67843 z m -38.0258,-4.11062 c -1.47866,-2.39252 1.84909,-11.49054 5.77215,-15.78097 2.15556,-2.35742 5.70871,-3.05621 5.70871,-1.12271 0,0.93382 -3.93967,9.92623 -6.954,15.87271 -0.9453,1.86482 -3.63318,2.47697 -4.52686,1.03097 z m -50.93368,-3.89269 C 375.02447,708.23057 382.88054,704 385.12712,704 c 1.66955,0 0.85798,1.77974 -1.52296,3.3398 -3.27466,2.14564 -7.25272,3.03786 -8.0187,1.79848 z M 551,708.60419 c -9.34208,-2.00389 -27,-13.2866 -27,-17.25194 0,-3.00811 3.20794,-2.39783 9.73406,1.85184 8.28687,5.39624 16.2111,8.73476 22.55797,9.5038 2.98708,0.36194 5.12657,1.20575 5.68022,2.24026 2.04563,3.82228 -2.74909,5.41992 -10.97225,3.65604 z M 361.78058,689.55428 c -8.99188,-3.11584 -14.58957,-6.52242 -22.05327,-13.42093 -8.72739,-8.0665 -17.56239,-10.98814 -24.15064,-7.98633 -3.10744,1.41584 -5.82834,-0.38606 -5.37493,-3.55951 0.63344,-4.43343 11.71576,-7.00432 18.00121,-4.17595 1.46739,0.66031 1.39823,0.13954 -0.5,-3.76493 -2.41483,-4.96703 -10.04012,-10.95366 -12.84758,-10.08665 C 313.04315,647.11965 310,644.60699 310,642.55102 c 0,-0.71837 0.70463,-1.89092 1.56583,-2.60566 1.56423,-1.29819 2.18056,-1.18714 10.34222,1.8636 1.11441,0.41656 1.28231,-0.24847 0.80513,-3.18899 -0.45513,-2.80465 -1.84198,-4.82934 -5.65804,-8.26031 -5.23126,-4.70334 -6.16316,-7.19519 -3.51333,-9.39436 1.27917,-1.06162 2.04573,-0.90703 4.5,0.90749 1.62701,1.2029 3.02342,1.83611 3.10315,1.40715 0.0797,-0.42897 0.25696,-4.60494 0.39385,-9.27994 0.39735,-13.57035 5.14981,-24.47838 15.41853,-35.38927 5.36311,-5.69849 15.18331,-11.60809 19.29266,-11.60994 3.26178,-0.001 1.7506,-1.49068 -4.51041,-4.44483 -3.43178,-1.61922 -7.82679,-2.91704 -9.76671,-2.88403 -4.00821,0.0682 -10.65725,3.18933 -13.14939,6.17246 -2.08512,2.49592 -5.6231,1.8022 -6.38989,-1.25291 -0.83722,-3.33576 1.02092,-6.9937 5.23527,-10.30618 5.60064,-4.4021 9.15269,-5.93127 15.41325,-6.63544 14.41481,-1.62135 31.23689,8.24169 53.63659,31.44795 14.82357,15.35732 28.11236,26.31499 33.8673,27.92627 6.45978,1.80863 10.77266,-0.32 13.60035,-6.71248 1.80723,-4.08554 1.97741,-5.81349 1.37747,-13.98652 -0.63036,-8.58746 -0.5413,-9.3241 1.12583,-9.3127 3.10486,0.0212 6.50712,6.67045 7.35218,14.36878 0.42205,3.84476 0.37143,8.03186 -0.11249,9.30466 -0.48392,1.2728 -0.65841,2.31418 -0.38775,2.31418 0.27065,0 -0.62114,2.19687 -1.98177,4.88192 -3.29135,6.49517 -9.2372,11.1713 -14.46998,11.37997 l -3.99271,0.15922 1.95143,3.28945 c 1.07329,1.80919 2.96393,4.97694 4.20143,7.03944 3.33537,5.55895 4.65815,11.69047 4.69221,21.75 0.0393,11.59611 -0.51746,13.76246 -3.31617,12.90382 -1.16932,-0.35875 -2.32351,-0.83134 -2.56486,-1.0502 -0.24135,-0.21886 -0.76548,-4.77546 -1.16473,-10.12577 C 436.05643,641.97088 436.23467,643 435.125,643 c -0.48125,0 -1.13779,1.31393 -1.45897,2.91985 -1.13605,5.68027 -5.51643,13.06383 -12.94404,21.8185 -11.72303,13.81752 -18.60369,18.44769 -33.22199,22.35591 -9.35981,2.50236 -17.42851,2.33296 -25.71942,-0.53998 z M 379.8,674.8 c 0.66,-0.66 1.2,-2.685 1.2,-4.5 0,-2.06477 0.49353,-3.3 1.3185,-3.3 3.64036,0 12.11428,-3.44109 15.24668,-6.19137 C 402.0679,656.85518 404,653.0973 404,648.29306 c 0,-10.08794 -4.51068,-15.81753 -15.65133,-19.88075 L 381,625.7321 v -9.36605 c 0,-11.05651 0.887,-11.71435 7.23529,-5.36605 4.37847,4.37846 6.30669,4.80533 10.923,2.41815 2.69945,-1.39595 2.98772,-1.95421 2.4527,-4.75 C 400.716,603.99118 394.44833,598.56296 387.66677,596.5915 382.19151,594.9998 382,594.82757 382,591.49512 c 0,-2.54378 -0.6343,-3.86463 -2.41675,-5.03253 C 376.00153,584.11575 373,586.24344 373,591.12926 c 0,3.41577 -0.23591,3.69242 -3.70349,4.34294 -12.16433,2.28204 -19.53753,11.76641 -17.85738,22.97047 0.97116,6.47617 5.33127,11.10763 14.31087,15.2015 l 7.25,3.30534 v 9.02524 c 0,8.30532 -0.15676,9.02525 -1.9652,9.02525 -2.35964,0 -8.69132,-5.34243 -9.55435,-8.06159 -0.80419,-2.53378 -6.41276,-2.62356 -9.4656,-0.15152 -1.99564,1.61597 -2.10373,2.16931 -1.1301,5.7851 1.06242,3.94554 5.55348,9.13107 9.78846,11.3021 1.19527,0.61275 4.45777,1.60404 7.25,2.20286 4.82474,1.03472 5.07679,1.2485 5.07679,4.30591 0,3.51077 1.49996,5.61714 4,5.61714 0.88,0 2.14,-0.54 2.8,-1.2 z m 1.2,-27.47679 c 0,-7.37396 0.21553,-8.45448 1.58179,-7.9302 0.86998,0.33385 1.92927,0.60699 2.35397,0.60699 0.42471,0 1.9629,1.10351 3.41822,2.45225 4.65612,4.31515 2.58993,10.60424 -4.10398,12.49173 l -3.25,0.91641 z m -12.80354,-26.81136 c -4.50053,-3.78694 -4.67904,-6.22927 -0.74298,-10.16533 C 369.29407,608.50593 371.295,607 371.9,607 c 0.70833,0 1.1,2.84848 1.1,8 0,4.4 -0.41547,8 -0.92327,8 -0.50781,0 -2.25393,-1.11967 -3.88027,-2.48815 z M 551,687.62118 c -11.24362,-2.05335 -18.29492,-6.00634 -31.86789,-17.86527 -6.45786,-5.64234 -11.47007,-7.41971 -14.78975,-5.24458 -2.84985,1.86729 -5.34236,0.93214 -5.34236,-2.00438 0,-1.62014 1.00847,-2.75762 3.48807,-3.93426 l 3.48807,-1.6552 -2.93221,-5.49483 c -1.61271,-3.02216 -3.22017,-7.61609 -3.57213,-10.20875 -1.18431,-8.72409 -1.06568,-8.70191 -7.65458,-1.43132 -3.34047,3.68608 -7.43091,9.10701 -9.08986,12.04651 -1.65895,2.93949 -3.69134,5.60358 -4.51642,5.9202 -1.6582,0.63631 -4.21094,-2.2209 -4.21094,-4.71318 0,-2.65165 6.84417,-13.341 14.19611,-22.17175 9.9963,-12.007 9.91408,-11.49248 1.76289,-11.0319 l -6.87371,0.3884 -4.95429,-5.08637 c -3.29,-3.37772 -5.53015,-6.82017 -6.66855,-10.24754 -3.75497,-11.30516 1.30687,-28.643 6.98629,-23.9295 1.09175,0.90607 1.28831,2.79096 0.84388,8.09216 C 478.33394,600.48477 483.00859,609 490.24488,609 c 1.63634,0 5.73815,-1.43657 9.11514,-3.19239 4.8923,-2.54368 10.9153,-7.99785 29.63998,-26.84072 24.19368,-24.3464 31.84108,-30.68789 43.65367,-36.1992 6.03613,-2.81623 7.97056,-3.21562 16.34633,-3.37491 11.96095,-0.22746 17.52535,1.47586 24.08352,7.37222 3.5895,3.22727 4.91648,5.15106 4.91648,7.12767 0,4.69686 -4.30305,6.85695 -7.05472,3.54139 -4.02845,-4.85397 -14.7056,-7.01245 -23.9826,-4.84827 -5.71351,1.33287 -14.62356,5.21113 -12.46268,5.42461 0.55,0.0543 2.83488,0.2124 5.07752,0.35126 9.66891,0.59868 26.13694,11.51675 33.39189,22.13834 9.42523,13.79899 11.4516,20.45283 11.49561,37.74725 0.0192,7.56099 0.25998,13.74681 0.53498,13.74626 0.94526,-0.002 7.50222,-4.20554 9.67597,-6.20327 2.55583,-2.34887 4.32403,-1.64279 4.32403,1.72667 0,3.36268 -9.52265,12.87631 -13.65426,13.64133 -1.67887,0.31086 -9.04774,13.4731 -8.08301,14.43782 0.20335,0.20336 1.91196,-0.0726 3.7969,-0.61316 8.3086,-2.38288 16.20838,-0.41928 16.74442,4.16203 0.30188,2.58012 0.24502,2.60214 -8,3.09687 -5.97979,0.35881 -9.87796,1.21517 -13.92727,3.05956 -6.1907,2.81976 -15.7696,8.6861 -20.26934,12.41341 -4.72525,3.91411 -12.06762,7.18608 -20.85104,9.29182 -9.24905,2.21738 -14.26886,2.34724 -23.7564,0.61459 z m 15.79585,-17.87519 c 0.57241,-0.68971 1.19001,-2.78407 1.37245,-4.65412 0.30195,-3.09513 0.78018,-3.55243 5.3317,-5.09839 2.75,-0.93406 6.14241,-2.16742 7.5387,-2.7408 3.33202,-1.36828 9.73746,-8.51266 10.55592,-11.77365 0.92865,-3.70005 0.0105,-12.47766 -1.67148,-15.97903 -1.94895,-4.05718 -9.29644,-8.79033 -16.22635,-10.45279 L 568,617.68057 v -8.67362 c 0,-4.77049 0.28417,-8.95778 0.63148,-9.3051 0.9911,-0.9911 4.56578,1.19605 8.12685,4.97236 3.45492,3.66375 5.11806,3.77358 10.04541,0.6634 3.32456,-2.09849 3.75535,-4.14396 1.68316,-7.9918 -2.20709,-4.09832 -6.69275,-7.01297 -14.30235,-9.29326 -5.3904,-1.61529 -5.66962,-1.85787 -5.39601,-4.68812 0.19599,-2.02728 -0.38729,-3.59631 -1.81834,-4.89139 -1.92707,-1.74398 -2.33574,-1.77871 -4.78854,-0.40696 -1.96278,1.0977 -2.8157,2.51182 -3.18166,5.27514 -0.46443,3.50684 -0.8989,3.93704 -6.10754,6.04756 -7.90991,3.20507 -11.4051,5.97302 -13.80663,10.93392 -2.33249,4.81827 -2.64585,9.70683 -0.94731,14.77808 2.06121,6.15403 4.4935,7.91412 17.11148,12.38252 l 4.75,1.68212 v 9.91729 c 0,9.40147 -0.109,9.91729 -2.09563,9.91729 -3.13828,0 -7.94779,-3.85967 -9.53093,-7.64866 C 547.19045,638.52004 546.46666,638 543.70909,638 c -7.13927,0 -9.6613,5.10519 -5.69357,11.52512 2.84493,4.60319 7.72091,8.03155 14.57937,10.25092 5.5367,1.79166 5.9258,2.12316 6.23681,5.3134 0.41114,4.21731 1.74851,5.91056 4.6683,5.91056 1.24031,0 2.72344,-0.56431 3.29585,-1.25401 z M 568,640 c 0,-5.6172 0.39453,-9 1.04966,-9 2.02972,0 6.90235,3.04181 7.9207,4.94461 1.90309,3.55596 1.17495,7.11723 -2.07612,10.15418 -1.70816,1.59567 -3.95816,2.90121 -5,2.90121 C 568.17557,649 568,648.16584 568,640 Z m -14.36514,-27.07258 c -3.85786,-3.03459 -3.52488,-6.93879 0.92501,-10.84584 1.95793,-1.71909 3.98293,-2.86415 4.5,-2.54458 0.51707,0.31957 0.94013,3.92948 0.94013,8.02202 0,6.59497 -0.21206,7.44098 -1.86514,7.44098 -1.02583,0 -3.05083,-0.93266 -4.5,-2.07258 z M 460,606 c 0,-0.55 0.45,-1 1,-1 0.55,0 1,0.45 1,1 0,0.55 -0.45,1 -1,1 -0.55,0 -1,-0.45 -1,-1 z m 37.44113,-43.4293 c -1.91946,-1.41335 -1.91956,-1.46968 -0.009,-5.04597 4.17594,-7.81635 26.16003,-25.69318 33.36944,-27.13506 2.8981,-0.57962 3.19834,-0.41081 3.19834,1.79824 0,2.65684 -2.2303,4.97155 -11.43388,11.8666 -3.26363,2.44502 -9.62438,7.93299 -14.13499,12.19549 -4.51062,4.2625 -8.39187,7.75 -8.625,7.75 -0.23313,0 -1.29738,-0.64319 -2.365,-1.4293 z m -87.16486,-6.89475 c -6.5053,-5.79907 -17.50465,-13.32541 -24.52627,-16.78217 -7.33229,-3.6097 -8.64091,-6.0751 -4.27944,-8.06232 1.9636,-0.89468 3.45131,-0.75918 7.25,0.66031 C 398.92514,535.30501 418,550.50057 418,554.8166 c 0,1.16217 -0.88818,2.58837 -1.97373,3.16934 -1.63424,0.87462 -2.62328,0.47729 -5.75,-2.30999 z M 342,535.44897 C 342,533.7872 347.61822,531 350.96788,531 c 3.40234,0 2.28786,1.52791 -2.78763,3.82174 -5.7413,2.59475 -6.18025,2.63929 -6.18025,0.62723 z m 333.05273,207.91234 c 0.55177,-1.45128 0.81767,-2.82425 0.59087,-3.05104 -0.2268,-0.2268 -0.89098,0.96061 -1.47596,2.63868 -1.3004,3.73032 -0.51544,4.09603 0.88509,0.41236 z m 1.63038,-6.54881 c -0.31922,-0.79773 -0.55618,-0.56078 -0.60416,0.60417 -0.0434,1.05416 0.19293,1.64479 0.52522,1.3125 0.33229,-0.33229 0.36781,-1.1948 0.0789,-1.91667 z M 682,722.05902 c 0,-1.06754 -0.45,-2.2191 -1,-2.55902 -0.56716,-0.35052 -1,0.48962 -1,1.94098 0,1.40746 0.45,2.55902 1,2.55902 0.55,0 1,-0.87344 1,-1.94098 z m 14.97082,-11.54393 c 3.89873,-2.01611 6.06935,-5.30939 11.35109,-17.22195 2.47424,-5.58044 8.6551,-16.59181 13.73524,-24.4697 13.94118,-21.61889 18.54279,-32.07468 23.80413,-54.08779 1.98706,-8.31377 1.4455,-19.87496 -1.26881,-27.08621 -6.75747,-17.95294 -16.09855,-22.50683 -31.12289,-15.17278 -7.11691,3.47409 -12.21939,8.15197 -19.84011,18.18917 -5.62692,7.41117 -6.63171,9.34429 -6.6443,12.7829 -0.008,2.2282 -0.47661,10.57627 -1.04101,18.55127 -1.03116,14.57038 -1.21578,32.60094 -0.68728,67.12159 0.32957,21.5266 0.29272,21.42239 8.04278,22.74223 0.43981,0.0749 2.09184,-0.53203 3.67116,-1.34873 z m -4.76123,-34.79199 c -3.6816,-3.91889 -0.41492,-10.76034 7.29544,-15.27891 5.5648,-3.2612 8.76812,-9.50977 9.32614,-18.19212 0.29571,-4.60096 -0.0245,-6.89821 -1.21481,-8.71482 -2.1681,-3.30895 -2.03552,-5.24255 0.4507,-6.57314 7.58255,-4.05806 12.64597,16.30641 7.09515,28.53589 -2.51498,5.54098 -6.29058,9.96179 -10.29504,12.05437 -1.44889,0.75713 -2.9454,2.62813 -3.32791,4.16072 -1.53542,6.15182 -5.65362,7.92099 -9.32967,4.00801 z M 696.5,638.23374 c -0.55,-0.40356 -1.94771,-2.09038 -3.10602,-3.7485 -1.89525,-2.71305 -1.98429,-3.42701 -0.88974,-7.13403 C 697.36611,610.88506 718.83209,587 728.76867,587 c 1.17547,0 3.2834,0.52223 4.68428,1.16052 3.13823,1.42987 3.49506,5.35831 0.5565,6.12676 -1.85578,0.4853 -1.89005,0.71323 -0.50616,3.36663 1.93009,3.70066 1.89875,7.8012 -0.0747,9.77466 -2.36805,2.36806 -2.877,2.00658 -4.83287,-3.43249 -0.98966,-2.75216 -2.20091,-5.25208 -2.69166,-5.55538 -1.72728,-1.06753 -8.31358,5.13697 -12.83357,12.0896 -4.83833,7.44234 -11.25426,20.01234 -12.70321,24.88799 -0.91638,3.08358 -2.21417,4.0284 -3.86726,2.81545 z m 142.20295,66.59368 c 16.53673,-6.93252 25.12136,-24.64252 19.36424,-39.94823 -3.58241,-9.52411 -13.35154,-17.48222 -22.75614,-18.53755 -11.44661,-1.28448 -19.90419,-0.5815 -25.18223,2.09308 -11.17064,5.6606 -17.14475,15.38428 -17.10686,27.84379 0.0152,4.98553 0.61001,8.45999 1.92117,11.22149 2.2531,4.74535 9.53172,12.64411 13.05687,14.16931 5.50318,2.38104 8.27221,3.39169 8.54318,3.11813 0.1566,-0.15809 0.41054,-2.66938 0.56431,-5.58064 0.26476,-5.01268 0.10901,-5.39692 -2.93888,-7.25046 -3.42014,-2.07991 -5.49261,-5.94844 -4.53026,-8.45629 0.79052,-2.06005 4.71838,-2.91468 7.22654,-1.57236 1.85321,0.99181 2.15278,0.7204 3.104,-2.81215 1.0804,-4.01229 2.48016,-5.11554 6.49045,-5.11554 3.15578,0 4.76281,2.27437 4.38057,6.19964 -0.26879,2.76009 -0.002,3.27194 1.62779,3.12673 3.65841,-0.32588 5.6733,1.55673 5.3407,4.99007 -0.26641,2.75013 -0.88736,3.3837 -4.56084,4.65357 -5.00072,1.72867 -5.96337,3.83103 -4.20032,9.17313 1.07304,3.25134 1.71136,3.85686 4.06577,3.85686 1.53608,0 4.05156,-0.52766 5.58994,-1.17258 z m -555.76652,-37.18607 1.25563,-5.85865 -3.59603,-2.96415 c -3.36161,-2.77093 -3.59524,-3.33425 -3.58398,-8.64135 0.009,-4.16101 0.65999,-6.81045 2.43821,-9.9205 2.91269,-5.0942 2.59083,-9.25224 -1.29709,-16.7567 -3.26207,-6.29647 -9.46703,-15.68566 -11.45807,-17.33808 -1.28375,-1.06542 -1.61513,-0.80251 -2.16943,1.72119 -0.35982,1.63828 -1.28909,3.50558 -2.06502,4.14955 -2.27287,1.88632 -4.08607,-3.0882 -2.73282,-7.4975 0.95805,-3.12162 0.83245,-3.59326 -1.33515,-5.01352 C 254.43712,596.92986 255.83702,592 260.52856,592 c 6.1162,0 18.72567,13.31607 26.60095,28.0916 2.80997,5.27204 3.35488,5.80793 4.29441,4.22331 0.65323,-1.10173 1.0388,-7.76362 0.98122,-16.95328 l -0.0949,-15.13838 -5.90514,-7.82607 c -9.23556,-12.23987 -16.9549,-16.41291 -24.07769,-13.01629 -15.64426,7.46023 -11.5725,65.06671 6.35945,89.97239 7.38423,10.25595 11.6074,14.87814 12.31682,13.48057 0.3724,-0.73362 1.24212,-3.97024 1.93271,-7.1925 z m 6.04325,-18.60151 c 2.29009,-4.48897 2.61943,-7.39862 0.77032,-6.80568 -1.93104,0.61922 -5.16721,7.23623 -4.45136,9.10171 0.92964,2.4226 1.43439,2.10777 3.68104,-2.29603 z m 381.6835,-89.87165 C 669.74299,556.60068 668.9736,553.6 668.95342,552.5 c -0.0202,-1.1 -0.94006,0.55044 -2.04418,3.66765 l -2.0075,5.66764 2.79913,3.98139 2.79913,3.98139 0.91812,-2.98085 c 0.66946,-2.17349 0.46498,-4.24521 -0.75494,-7.64903 z m 31.32941,2.61028 c -1.09593,-1.02101 -2.0069,-2.40135 -2.02439,-3.06743 -0.0175,-0.66607 -0.63067,-1.99999 -1.36261,-2.96427 -1.15192,-1.51756 -1.2874,-1.0471 -1.00794,3.5 0.17757,2.88928 0.34074,6.0542 0.3626,7.03317 0.036,1.6139 0.31891,1.57354 3.03234,-0.43258 2.97519,-2.19965 2.981,-2.22331 1,-4.06889 z M 709,542.28391 c 0,-5.70263 -6.17074,-16.3584 -13.19547,-22.78625 C 670.91977,496.72733 631.15987,482.7347 571,475.57541 c -28.13895,-3.34865 -97.47824,-5.37592 -123.5,-3.61076 -43.15695,2.92751 -63.87928,6.28506 -94,15.23044 -28.61072,8.49693 -48.98275,18.95932 -59.70135,30.66063 -5.02949,5.4906 -6.79332,9.95219 -6.77776,17.14428 0.0156,7.23277 1.2306,8.07752 5.4173,3.76661 16.36998,-16.85563 57.02849,-33.18252 96.56181,-38.77549 12.7468,-1.80335 35.83537,-3.97544 50.5,-4.75085 33.39886,-1.76601 111.68036,-0.46655 131.5,2.18288 1.375,0.18381 7.20257,0.87129 12.95015,1.52773 33.00305,3.76937 69.10337,13.49705 90.98749,24.51771 8.8893,4.47658 22.0025,14.41567 27.2853,20.68076 3.83652,4.54989 4.31722,4.83243 5.49084,3.2274 C 708.4212,546.4093 709,544.11752 709,542.28391 Z M 685.66228,543.75 c -0.27741,-0.6875 -0.50439,-0.125 -0.50439,1.25 0,1.375 0.22698,1.9375 0.50439,1.25 0.27741,-0.6875 0.27741,-1.8125 0,-2.5 z M 774,545.62244 c 0,-1.73079 -1.7929,-3.15958 -4.93501,-3.93277 -2.38451,-0.58677 -2.37415,-0.54016 0.5,2.2477 3.34245,3.2421 4.43501,3.65722 4.43501,1.68507 z M 666.31524,531.85626 c -2.87402,-1.13313 -3.06651,-1.00596 -2.55193,1.68593 0.46811,2.44873 0.55732,2.47762 2.42657,0.78597 1.8533,-1.67721 1.85894,-1.78842 0.12536,-2.4719 z M 721.5,533 c 0.33992,-0.55 0.14148,-1 -0.44098,-1 -0.58246,0 -1.05902,0.45 -1.05902,1 0,0.55 0.19844,1 0.44098,1 0.24254,0 0.7191,-0.45 1.05902,-1 z m 34.98213,-4.7186 c -4.73495,-3.23256 -11.08613,-3.74039 -12.61488,-1.00867 -0.53165,0.95 -1.73177,1.80979 -2.66694,1.91065 -1.42653,0.15385 4.29643,0.71082 16.78182,1.63324 2.1999,0.16253 2.02935,-0.12574 -1.5,-2.53522 z m 177.0181,-7.72867 c 10.90242,-6.38924 18.50573,-21.6541 17.16673,-34.46495 -1.42612,-13.64444 -9.25041,-23.17022 -23.66696,-28.81365 -1.375,-0.53825 -7.675,-0.87908 -14,-0.7574 -14.12466,0.27174 -18.77472,2.02655 -26.59451,10.03607 -7.90078,8.09247 -9.69057,12.13538 -10.20335,23.04808 -0.4901,10.42987 1.02716,15.18125 7.2875,22.82118 3.41727,4.17032 15.41109,11.57794 18.74608,11.57794 1.94093,0 3.44069,-3.56194 4.25966,-10.11672 l 0.67746,-5.42224 -4.54296,-1.21506 c -5.20518,-1.39217 -7.09549,-3.89114 -5.70663,-7.54412 1.16026,-3.0517 3.13795,-3.83149 6.94686,-2.73911 2.91267,0.83534 3.00116,0.75561 3.66617,-3.30337 0.84127,-5.13481 2.95691,-7.65938 6.41871,-7.65938 3.80009,0 5.04501,1.75708 5.04501,7.12054 0,4.51653 0.14046,4.75058 3.25,5.41548 4.446,0.95066 5.75,2.21325 5.75,5.56737 0,2.99524 -0.96377,3.52498 -7.5,4.1224 -2.62293,0.23975 -3.04115,0.70631 -3.32737,3.71205 -0.27319,2.8689 1.22111,10.83033 2.4803,13.21466 0.53116,1.00578 9.19036,-1.87062 13.8473,-4.59977 z M 287.56427,507.89601 c 0.37526,-0.60719 -0.48269,-2.26898 -1.90658,-3.69286 l -2.58887,-2.58888 1.13337,3.69287 c 1.15955,3.77814 2.15387,4.5438 3.36208,2.58887 z m 8.9615,-7.50485 c 2.44115,-1.5995 2.44453,-1.62419 0.58218,-4.25 -1.03028,-1.45264 -3.28002,-5.74968 -4.99943,-9.54898 -1.71942,-3.7993 -3.38041,-6.65362 -3.6911,-6.34293 -0.31069,0.31069 0.16736,1.9809 1.06233,3.71158 0.89497,1.73069 1.85701,5.485 2.13788,8.34293 0.64176,6.53021 1.27411,9.69624 1.93661,9.69624 0.28387,0 1.62106,-0.72398 2.97153,-1.60884 z m -28.13276,-58.97295 c 1.02456,-2.66996 0.62404,-4.81801 -1.33657,-7.16821 -2.64437,-3.16983 -3.24209,-2.81326 -2.51443,1.5 1.25283,7.42635 2.48206,9.23562 3.851,5.66821 z m -1.92995,-22.83424 c -1.90757,-2.91133 -5.00662,-4.44284 -4.0744,-2.01352 0.33624,0.87622 0.61134,1.97332 0.61134,2.43801 0,0.7355 1.72688,1.49347 4.27305,1.87554 0.42518,0.0638 0.0607,-0.97121 -0.80999,-2.30003 z M 723.8,1002.8 c 0.93333,-0.9333 1.46667,-0.9333 2.4,0 0.93333,0.9333 0.66667,1.2 -1.2,1.2 -1.86667,0 -2.13333,-0.2667 -1.2,-1.2 z m -476.35764,-1.8933 c -0.98074,-1.58684 2.10338,-4.29499 4.04348,-3.55051 1.8676,0.71667 1.2789,2.16417 -1.48085,3.64111 -1.30168,0.6967 -2.09339,0.6687 -2.56263,-0.091 z m 70.12907,-69.47813 c -2.4579,-2.45789 -1.94412,-3.85846 3.67857,-10.02793 11.70033,-12.83813 22.02769,-21.02158 33.39297,-26.46075 9.07622,-4.34368 14.00863,-3.51251 13.18379,2.22165 -0.32173,2.23664 -1.39193,2.96335 -9.32676,6.33322 -7.46127,3.16876 -17.60619,10.71872 -27.04616,20.12805 C 326.27959,928.78027 321.39288,933 320.59448,933 c -0.79839,0 -2.15877,-0.70714 -3.02305,-1.57143 z M 284.2,909.8 c -2.49738,-2.49738 -1.23632,-5.56612 4.40669,-10.72352 12.29991,-11.24142 38.16363,-26.35035 50.824,-29.69009 4.31113,-1.13726 5.33668,-1.11361 7.29294,0.16818 2.49017,1.63162 2.99505,4.65586 1.02637,6.1479 -0.6875,0.52105 -3.275,1.52157 -5.75,2.22338 -11.09009,3.1447 -27.1959,12.64764 -47.30296,27.91025 -7.1239,5.40752 -8.52452,5.93642 -10.49704,3.9639 z m 391.683,-19.82909 c -13.24005,-10.65398 -34.87387,-22.29602 -49.13621,-26.44219 -7.02616,-2.04256 -9.50958,-4.55916 -7.92689,-8.03278 1.49622,-3.28386 4.38753,-3.24059 15.1801,0.22718 16.28738,5.23331 38.56435,17.93947 48.75146,27.80646 4.44753,4.30777 5.34614,5.74204 5.07635,8.10238 -0.56102,4.9084 -4.45339,4.36713 -11.94481,-1.66105 z m -415.40575,-9.04257 c -0.42609,-1.34252 -0.01,-2.79317 1.18262,-4.12159 4.79172,-5.33803 23.6965,-15.87222 37.84013,-21.08541 14.59772,-5.38057 32.13281,-8.78327 37.85792,-7.34636 5.42041,1.36044 3.12021,8.62502 -2.73096,8.62502 -13.4253,0 -37.81976,8.45852 -59.01943,20.46436 -10.56504,5.98323 -14.07561,6.78694 -15.13028,3.46398 z M 695.2451,866.45912 c -3.84631,-2.69406 -23.41538,-12.08453 -32.7451,-15.71316 -4.95,-1.92522 -13.275,-4.54022 -18.5,-5.81111 -10.31374,-2.50865 -13.24869,-4.20155 -12.79402,-7.37968 0.27336,-1.91076 0.92642,-2.04614 9.29402,-1.92666 10.5677,0.1509 21.58999,3.42495 38.23681,11.35784 19.70329,9.38942 27.52148,16.15796 22.71952,19.66924 -2.36571,1.72985 -3.51283,1.69356 -6.21123,-0.19647 z M 109.71663,585.47683 c -8.2563,-1.55957 -14.151178,-4.09125 -19.472803,-8.36303 -9.023981,-7.24374 -10.569171,-8.7652 -13.710207,-13.4996 -4.911644,-7.40321 -7.396446,-13.80357 -8.109221,-20.88777 -1.24989,-12.42252 3.558548,-26.92688 11.927428,-35.97835 5.532091,-5.98331 16.497483,-13.19012 22.385003,-14.71215 2.61975,-0.67725 5.27717,-1.37966 5.9054,-1.5609 0.75695,-0.21839 0.003,-3.60068 -2.2354,-10.02749 -1.8577,-5.33386 -4.10187,-13.1291 -4.98705,-17.32274 -0.88518,-4.19364 -2.460835,-11.6748 -3.50146,-16.6248 -1.040625,-4.95 -1.897957,-11.09537 -1.905183,-13.65638 -0.01139,-4.03591 -0.259775,-4.59188 -1.864061,-4.17235 C 91.797634,429.28618 89,426.5363 89,423.61007 c 0,-1.23589 0.675549,-4.52189 1.501221,-7.30223 1.488098,-5.01097 22.758139,-48.39177 32.323179,-65.92395 2.73541,-5.01386 7.77762,-14.46386 11.20492,-21 24.62211,-46.95647 50.17831,-89.81909 55.13494,-92.4718 1.11072,-0.59444 2.65261,-0.49702 4.34612,0.27459 2.47914,1.12957 2.58756,1.4764 1.95533,6.2546 -0.36814,2.7823 -1.07353,5.48622 -1.56753,6.00872 -0.494,0.5225 -0.89818,1.94375 -0.89818,3.15833 0,1.21458 -1.95478,4.61208 -4.34395,7.55 -6.67356,8.20635 -14.25836,21.0537 -28.41965,48.138 -4.25502,8.13798 -11.49507,21.63798 -16.089,30 -4.59393,8.36202 -14.43154,27.0608 -21.86137,41.55285 l -13.50877,26.34917 0.15592,11.65083 c 0.20929,15.63862 1.05941,21.68337 6.20927,44.15082 0.5673,2.475 1.62049,6.075 2.34042,8 0.71993,1.925 2.10855,6.334 3.08584,9.79777 0.97728,3.46378 2.11179,6.50477 2.52114,6.75776 0.40935,0.25299 1.50495,-1.90601 2.43467,-4.79777 0.92973,-2.89177 5.26198,-12.16554 9.62722,-20.60839 l 7.93681,-15.35064 -1.48857,-4.14936 c -3.02681,-8.43718 -5.01954,-19.5534 -4.01851,-22.41673 1.28797,-3.68408 5.76034,-4.33101 7.49779,-1.08455 0.66757,1.24737 1.29119,2.96184 1.38583,3.80993 0.0946,0.84809 0.7738,3.74572 1.50926,6.43918 1.54686,5.66498 1.37747,5.78045 8.16779,-5.56775 3.97278,-6.63945 3.98358,-6.68566 2.31535,-9.91166 -0.92183,-1.78262 -2.30483,-6.84285 -3.07334,-11.24496 -1.23397,-7.06836 -1.2185,-8.2767 0.13234,-10.33834 2.61412,-3.98965 6.89881,-2.8187 7.96065,2.17553 1.54507,7.26704 2.83706,11.48998 3.51532,11.48998 0.4029,0 3.02002,-3.0375 5.81581,-6.75 2.79579,-3.7125 6.1866,-8.09572 7.53513,-9.7405 2.446,-2.98334 2.44748,-2.99909 0.61699,-6.58714 -2.76557,-5.42096 -5.41693,-20.66733 -3.90987,-22.48324 2.3919,-2.88205 7.95374,-1.12462 7.94631,2.51088 -0.002,0.8525 0.97275,4.84259 2.16553,8.86686 1.98237,6.68825 2.36297,7.26811 4.43003,6.74931 1.66264,-0.4173 2.81023,0.13022 4.33448,2.06799 2.85275,3.62668 2.60936,5.68945 -1.17687,9.974 -7.73022,8.74764 -34.22806,48.33144 -37.74934,56.39184 -1.3215,3.025 -2.95591,6.17578 -3.63201,7.00174 -1.63052,1.99192 -13.94587,26.80726 -14.88753,29.99826 -0.40576,1.375 -1.54879,4.10839 -2.54007,6.07419 l -1.80232,3.5742 3.52476,1.27457 c 6.21462,2.24723 15.18454,8.1605 18.85529,12.43002 1.96098,2.28086 4.17896,4.82202 4.92884,5.64702 2.48771,2.73692 6.511,13.09854 7.6698,19.75288 2.84217,16.32092 -2.59334,32.12002 -14.82301,43.08528 -11.77695,10.55934 -26.45412,14.0621 -44.57778,10.63867 z m 28.21076,-15.14213 c 12.59838,-6.16381 19.90657,-19.43501 18.84819,-34.22712 -1.24507,-17.40151 -17.84834,-32.68446 -34.93863,-32.16023 -2.56468,0.0787 -4.9188,-0.27077 -5.23138,-0.77653 -0.91166,-1.47511 -9.48294,0.56152 -16.39803,3.89635 -5.137559,2.47761 -7.204265,4.26411 -11.260409,9.7337 -8.246334,11.11994 -9.977464,22.27386 -5.152628,33.19913 3.563724,8.06963 13.81599,17.8602 20.444557,19.52386 2.3341,0.58583 2.6776,0.23674 4.12531,-4.19241 C 110.5963,558.50309 111.49393,552 110.20453,552 c -0.57809,0 -2.43561,-1.165 -4.1278,-2.58889 C 101.25531,545.35415 102.3495,540 108,540 c 1.43,0 3.10861,0.50861 3.73025,1.13025 0.84034,0.84034 1.3073,0.18649 1.8205,-2.54907 0.8607,-4.58792 2.78869,-6.58118 6.36569,-6.58118 4.14244,0 6.33726,3.01194 5.92628,8.13262 -0.33355,4.15599 -0.25039,4.28932 3.10842,4.98365 3.39081,0.70094 6.04886,3.10202 6.04886,5.46408 0,0.65894 -0.80705,2.19475 -1.79345,3.4129 -1.61408,1.9933 -2.17978,2.10815 -5.65616,1.14828 -2.12448,-0.5866 -4.16622,-0.87896 -4.5372,-0.64968 -0.37098,0.22927 -1.25037,3.0249 -1.95422,6.21251 -0.70385,3.1876 -1.87114,7.23194 -2.59399,8.98742 -1.66734,4.04921 -0.9405,4.41924 7.48641,3.81129 4.22051,-0.30449 8.36179,-1.4001 11.976,-3.16837 z m 586.73928,-62.00137 c -1.51855,-1.51854 -0.45805,-7.37803 2.86688,-15.84021 3.7993,-9.66949 6.45595,-23.27174 6.46243,-33.08813 0.004,-6.04869 1.70839,-9.40499 4.77606,-9.40499 6.05697,0 5.42538,24.82903 -1.07009,42.06692 -3.04556,8.08241 -6.59988,15.18894 -8.08628,16.16777 -1.402,0.92324 -4.07121,0.97644 -4.949,0.0986 z m -21.09524,-20.90476 c -1.93415,-1.93415 -1.95445,-2.7872 -0.1494,-6.2778 4.59899,-8.89345 7.55674,-25.27565 6.90478,-38.24368 -0.28083,-5.58585 -0.025,-6.87026 1.67493,-8.40866 1.69898,-1.53756 2.41081,-1.63149 4.64602,-0.61306 l 2.63965,1.2027 -0.59569,14.70597 c -0.77793,19.20533 -3.64088,30.92115 -9.03079,36.95596 -2.36877,2.65219 -3.94071,2.82736 -6.0895,0.67857 z M 433.25529,444.75 c -1.15133,-1.2375 -2.3851,-4.05 -2.74171,-6.25 -1.39771,-8.62292 -1.69769,-9.5 -3.24917,-9.5 -3.2965,0 0.0845,-39.85722 4.83516,-57 1.14314,-4.125 2.28923,-8.625 2.54687,-10 0.25764,-1.375 1.76757,-6.3884 3.35538,-11.14089 l 2.88694,-8.64088 -4.70375,-5.1164 c -6.40436,-6.9662 -15.61311,-12.38369 -59.68501,-35.11258 -28.12108,-14.50268 -35.20254,-17.9907 -45.49117,-22.40699 -7.719,-3.31329 -10.49351,-4.97608 -10.5,-6.29274 -0.007,-1.47206 -0.74514,-1.74394 -4.15943,-1.53256 -2.59061,0.16039 -7.28868,-0.8392 -12.5,-2.65956 -29.33798,-10.24803 -55.14606,-16.07506 -100.46211,-22.68265 -4.50647,-0.65709 -7.00753,-3.74892 -5.80308,-7.17378 1.60118,-4.55292 3.88992,-5.00375 18.1024,-3.56575 38.98279,3.94423 79.73929,14.16675 123.62115,31.00658 11.2489,4.3168 43.46429,19.99466 46.67445,22.71446 0.83478,0.70727 6.01779,3.68111 11.51779,6.60854 14.30224,7.6125 16.81439,9.03766 18.5,10.4952 0.825,0.71337 3.3,2.29135 5.5,3.50662 5.83603,3.22379 15.2496,10.06325 21.13942,15.35891 l 5.13941,4.62096 1.76443,-2.74325 c 6.18253,-9.6123 47.51197,-52.91536 70.09058,-73.43763 7.07639,-6.43191 18.26616,-16.01039 24.86616,-21.28552 13.73258,-10.97591 49.23307,-35.16401 52.9957,-36.10837 1.54788,-0.38849 3.42125,-0.0409 4.85973,0.9016 2.00466,1.3135 3.93282,1.38367 13.42496,0.48853 11.84554,-1.11707 19.82081,-0.281 41.21961,4.32118 12.35875,2.65795 14.59497,3.34975 60.5,18.7161 4.95,1.65697 15.075,4.42444 22.5,6.14994 7.425,1.72549 15.3,3.74408 17.5,4.48575 2.2,0.74168 7.375,2.32052 11.5,3.50855 12.90803,3.7176 28.07309,9.26543 31.35236,11.46963 3.6872,2.4784 4.51628,5.92968 2.07301,8.62947 -2.4645,2.72324 -5.246,2.42872 -18.87242,-1.99825 -14.66969,-4.76592 -27.04667,-8.43869 -35.05295,-10.4017 -3.3,-0.80911 -10.275,-2.59879 -15.5,-3.97707 -5.225,-1.37828 -11.525,-2.8089 -14,-3.17917 -2.475,-0.37026 -8.325,-2.19543 -13,-4.05594 -11.6349,-4.63032 -31.88738,-11.05987 -45.5,-14.44485 -17.97362,-4.46941 -24.30612,-5.28795 -42.94494,-5.55111 l -18.94493,-0.26748 -8.05507,6.10952 c -4.43028,3.36024 -14.38094,11.52619 -22.11256,18.14655 -29.46464,25.2297 -36.43631,30.57669 -39.02144,29.92786 -2.02956,-0.50939 -4.40363,1.29736 -15.65985,11.91772 -13.1173,12.3763 -25.78902,26.07341 -35.79495,38.69145 -2.83493,3.575 -5.9022,7.4 -6.81617,8.5 -0.91396,1.1 -3.8859,4.84164 -6.60431,8.31475 -3.46309,4.42454 -5.46251,6.17878 -6.67959,5.86051 -2.11197,-0.55229 -3.21681,1.70243 -2.93532,5.9903 0.1143,1.74107 -0.47284,4.48181 -1.30475,6.09055 -7.67586,14.84348 -14.92583,63.97456 -12.39756,84.01486 0.93801,7.43518 0.86247,8.47096 -0.74754,10.25 -2.34348,2.58952 -4.6447,2.50322 -7.22573,-0.27097 z M 321,266.61871 c 0,-1.3489 -8.72062,-4.23142 -9.73442,-3.21762 -0.73461,0.73461 5.96588,4.59086 7.98442,4.59517 0.9625,0.002 1.75,-0.61784 1.75,-1.37755 z m -7.65879,172.82808 c -1.56913,-4.08907 9.77459,-23.63358 20.51188,-35.34067 5.14004,-5.6043 6.19041,-6.31202 8.50557,-5.73095 4.17869,1.04878 3.51281,5.08891 -1.91715,11.63192 C 335.47718,415.98904 323,434.44589 323,435.80742 c 0,0.46417 -1.0415,1.82239 -2.31445,3.01827 -2.69645,2.53318 -6.48758,2.85379 -7.34434,0.6211 z m -8.2461,-19.36685 c -3.57336,-2.26228 0.4896,-12.40679 10.84573,-27.07994 9.60894,-13.61447 17.1586,-20.08751 21.01895,-18.02152 1.12211,0.60054 2.04021,1.76989 2.04021,2.59857 0,0.82867 -3.33904,5.32595 -7.42008,9.99395 C 324.8194,395.30384 313,413.26618 313,415.80752 c 0,1.04833 -4.72602,5.20601 -5.88486,5.17717 -0.33833,-0.008 -1.24734,-0.41556 -2.02003,-0.90475 z M 595,412 c 0,-0.55 0.45,-1 1,-1 0.55,0 1,0.45 1,1 0,0.55 -0.45,1 -1,1 -0.55,0 -1,-0.45 -1,-1 z m 60.78208,-0.64541 c -10.48921,-1.51979 -20.34775,-4.8211 -29.22943,-9.78802 -7.23558,-4.04637 -10.07635,-7.34119 -9.06819,-10.51761 0.95541,-3.01023 4.48179,-2.57934 11.79676,1.44147 8.20749,4.5114 15.52596,6.9924 26.42632,8.95864 12.92531,2.33151 13.1416,2.40053 14.29878,4.56274 1.38909,2.59554 -0.17989,5.59862 -3.22601,6.17469 -1.25417,0.23718 -6.20338,-0.13718 -10.99823,-0.83191 z m -363.55289,-8.5254 c -2.66222,-2.66222 -0.43637,-9.21615 6.69796,-19.72191 8.33526,-12.27422 25.17628,-26.16139 29.90567,-24.66034 2.05862,0.65338 3.35361,3.65401 2.29461,5.31688 -0.34509,0.54187 -3.93639,3.46865 -7.98068,6.50397 -7.95214,5.96824 -13.11223,11.67959 -18.93358,20.95629 -7.14202,11.38128 -7.79418,12.26413 -9.26915,12.54818 -0.81711,0.15736 -2.03878,-0.26702 -2.71483,-0.94307 z M 683,392.01456 c -4.675,-0.37997 -9.85,-1.37851 -11.5,-2.21899 -1.65,-0.84048 -4.8,-2.11005 -7,-2.82126 -6.20617,-2.00633 -20.41282,-10.12426 -21.00987,-12.00542 -0.71053,-2.23868 0.29316,-4.67175 2.23451,-5.41672 0.88495,-0.33959 5.32372,1.32343 10.17268,3.81126 9.36299,4.80382 22.42656,9.04226 31.10268,10.09119 6.3775,0.77104 10,2.77545 10,5.53325 0,1.82173 -2.87274,4.19194 -4.68426,3.86483 -0.44866,-0.081 -4.64074,-0.45818 -9.31574,-0.83814 z m 13,-21.59089 C 684.22019,367.22966 668.47779,358.32535 667.38278,354.23701 666.67961,351.61166 668.47496,349 670.9829,349 c 0.9559,0 3.4883,1.19476 5.62755,2.65501 6.12811,4.18306 17.76851,9.4087 25.05413,11.24737 7.21178,1.82004 9.56969,3.90905 7.72903,6.84762 -1.43641,2.29319 -6.48428,2.54709 -13.39361,0.67367 z M 213.74297,356.91596 c -3.03959,-1.77011 -5.31454,-7.9927 -7.76557,-21.24083 -2.50365,-13.53258 -2.26469,-15.87531 1.6799,-16.46915 1.07418,-0.16171 2.68354,0.51329 3.57636,1.5 1.65791,1.83227 5.31449,14.54462 6.81744,23.7013 0.45975,2.801 1.12521,6.25919 1.47881,7.68489 0.43645,1.75977 0.11054,3.12452 -1.01493,4.25 -1.912,1.91199 -2.37791,1.96801 -4.77201,0.57379 z M 488,341.42807 c 0,-1.41456 1.22005,-4.65379 2.71122,-7.19828 2.55142,-4.35367 13.87031,-20.14182 15.22012,-21.22979 0.34119,-0.275 2.17267,-2.525 4.06997,-5 9.54101,-12.44612 41.57439,-46.77485 52.99869,-56.79631 10.09089,-8.85179 14.16553,-11.14113 16.45197,-9.24355 2.09619,1.73968 1.95105,4.64325 -0.31156,6.23316 -12.73783,8.95067 -57.28631,57.40585 -77.73932,84.5567 C 494.62524,341.74477 492.43257,344 490.46318,344 488.48408,344 488,343.49454 488,341.42807 Z m 252.5,-0.4287 c -1.1,-0.42036 -6.42104,-5.53801 -11.82454,-11.37256 -6.84673,-7.3929 -10.78656,-10.85754 -12.99847,-11.4307 -1.74566,-0.45235 -3.31899,-1.57569 -3.49629,-2.49632 -0.39518,-2.05204 4.5931,-6.62485 7.27404,-6.66819 1.20467,-0.0195 6.33639,4.47708 13.37372,11.7184 12.66623,13.03341 14.64827,15.56529 13.83798,17.67687 -0.82681,2.15461 -3.90242,3.43769 -6.16644,2.5725 z M 753.5,281 c 0.33992,-0.55 0.81648,-1 1.05902,-1 0.24254,0 0.44098,0.45 0.44098,1 0,0.55 -0.47656,1 -1.05902,1 -0.58246,0 -0.7809,-0.45 -0.44098,-1 z"
       id="path1" />
  </g>
</svg>
